<?xml version="1.0"?>
<svg version="1.1" xmlns="http://www.w3.org/2000/svg" xmlns:xlink="http://www.w3.org/1999/xlink" width="700" height="350">
    <desc iVinci="yes" version="2.9" gridStep="20" showGrid="no" snapToGrid="no" codePlatform="0"/>
    <g id="Layer0">
        <g id="Shape1">
            <desc type="0" basicInfo-basicType="4" basicInfo-roundedRectRadius="12" basicInfo-polygonSides="6" basicInfo-starPoints="5" text="" font-familyName="" font-pointSize="20" font-weight="-1" strokeStyle="0" markerStart="0" markerEnd="0" shadowEnabled="0" shadowOffsetX="0" shadowOffsetY="2" shadowBlur="4" shadowOpacity="160" transform="matrix(0.568744,0,0,0.583333,116.347,183.625)" locked="0" mesh="" flag=""/>
            <path id="shapePath1" d="M133.693,183.625 C133.693,192.162 125.927,199.083 116.347,199.083 C106.766,199.083 99,192.162 99,183.625 C99,175.088 106.766,168.167 116.347,168.167 C125.927,168.167 133.693,175.088 133.693,183.625 Z" style="stroke:#323232;stroke-opacity:1;stroke-width:1;stroke-linejoin:miter;stroke-miterlimit:2;stroke-linecap:round;fill-rule:evenodd;fill:#e6c213;fill-opacity:1;"/>
        </g>
        <g id="Shape2">
            <desc type="0" basicInfo-basicType="4" basicInfo-roundedRectRadius="12" basicInfo-polygonSides="6" basicInfo-starPoints="5" text="" font-familyName="" font-pointSize="20" font-weight="-1" strokeStyle="0" markerStart="0" markerEnd="0" shadowEnabled="0" shadowOffsetX="0" shadowOffsetY="2" shadowBlur="4" shadowOpacity="160" transform="matrix(0.568744,0,0,0.583333,158.149,177.792)" locked="0" mesh="" flag=""/>
            <path id="shapePath2" d="M167.534,177.792 C167.534,183.107 163.332,187.417 158.149,187.417 C152.967,187.417 148.765,183.107 148.765,177.792 C148.765,172.476 152.967,168.167 158.149,168.167 C163.332,168.167 167.534,172.476 167.534,177.792 Z" style="stroke:#323232;stroke-opacity:1;stroke-width:1;stroke-linejoin:miter;stroke-miterlimit:2;stroke-linecap:round;fill-rule:evenodd;fill:#ffffff;fill-opacity:1;"/>
        </g>
        <g id="Shape3">
            <desc type="0" basicInfo-basicType="2" basicInfo-roundedRectRadius="12" basicInfo-polygonSides="6" basicInfo-starPoints="5" text="" font-familyName="" font-pointSize="20" font-weight="-1" strokeStyle="0" markerStart="0" markerEnd="0" shadowEnabled="0" shadowOffsetX="0" shadowOffsetY="2" shadowBlur="4" shadowOpacity="160" transform="matrix(0.568744,0,0,0.583333,159.287,209)" locked="0" mesh="" flag=""/>
            <path id="shapePath3" d="M146.49,193.833 C146.49,189.967 149.546,186.833 153.315,186.833 L165.259,186.833 C169.028,186.833 172.084,189.967 172.084,193.833 L172.084,224.167 C172.084,228.033 169.028,231.167 165.259,231.167 L153.315,231.167 C149.546,231.167 146.49,228.033 146.49,224.167 L146.49,193.833 Z" style="stroke:#323232;stroke-opacity:1;stroke-width:1;stroke-linejoin:miter;stroke-miterlimit:2;stroke-linecap:round;fill-rule:evenodd;fill:#ffffff;fill-opacity:1;"/>
        </g>
        <g id="Shape4">
            <desc type="0" basicInfo-basicType="0" basicInfo-roundedRectRadius="12" basicInfo-polygonSides="6" basicInfo-starPoints="5" text="" font-familyName="" font-pointSize="20" font-weight="-1" strokeStyle="0" markerStart="0" markerEnd="0" shadowEnabled="0" shadowOffsetX="0" shadowOffsetY="2" shadowBlur="4" shadowOpacity="160" transform="matrix(0.568744,0,0,0.583333,137.106,193.074)" locked="0" mesh="" flag=""/>
            <path id="shapePath4" d="M147.059,196.167 C139.142,197.556 133.613,192.357 127.153,189.75 " style="stroke:#323232;stroke-opacity:1;stroke-width:1;stroke-linejoin:miter;stroke-miterlimit:2;stroke-linecap:round;fill-rule:evenodd;fill:#ffffff;fill-opacity:1;"/>
        </g>
        <g id="Shape5">
            <desc type="0" basicInfo-basicType="1" basicInfo-roundedRectRadius="12" basicInfo-polygonSides="6" basicInfo-starPoints="5" text="" font-familyName="" font-pointSize="20" font-weight="-1" strokeStyle="0" markerStart="0" markerEnd="0" shadowEnabled="0" shadowOffsetX="0" shadowOffsetY="2" shadowBlur="4" shadowOpacity="160" transform="matrix(0.568744,0,0,0.583333,201.658,179.25)" locked="0" mesh="" flag=""/>
            <path id="shapePath5" d="M191.421,168.75 L211.896,168.75 L211.896,189.75 L191.421,189.75 L191.421,168.75 Z" style="stroke:#323232;stroke-opacity:1;stroke-width:1;stroke-linejoin:miter;stroke-miterlimit:2;stroke-linecap:round;fill-rule:evenodd;fill:#666699;fill-opacity:1;"/>
        </g>
        <g id="Shape6">
            <desc type="0" basicInfo-basicType="0" basicInfo-roundedRectRadius="12" basicInfo-polygonSides="6" basicInfo-starPoints="5" text="" font-familyName="" font-pointSize="20" font-weight="-1" strokeStyle="0" markerStart="0" markerEnd="0" shadowEnabled="0" shadowOffsetX="0" shadowOffsetY="2" shadowBlur="4" shadowOpacity="160" transform="matrix(0.568744,0,0,0.583333,183.743,192.39)" locked="0" mesh="" flag=""/>
            <path id="shapePath6" d="M172.368,196.75 C182.211,197.196 189.609,192.647 195.118,188 " style="stroke:#323232;stroke-opacity:1;stroke-width:1;stroke-linejoin:miter;stroke-miterlimit:2;stroke-linecap:round;fill-rule:evenodd;fill:#ffffff;fill-opacity:1;"/>
        </g>
        <g id="Shape7">
            <desc type="0" basicInfo-basicType="0" basicInfo-roundedRectRadius="12" basicInfo-polygonSides="6" basicInfo-starPoints="5" text="" font-familyName="" font-pointSize="20" font-weight="-1" strokeStyle="0" markerStart="0" markerEnd="0" shadowEnabled="0" shadowOffsetX="0" shadowOffsetY="2" shadowBlur="4" shadowOpacity="160" transform="matrix(0.568744,0,0,0.583333,147.628,140.167)" locked="0" mesh="" flag=""/>
            <path id="shapePath7" d="M124.025,171.083 C137.65,145.927 159.217,132.207 171.23,109.25 " style="stroke:#323232;stroke-opacity:1;stroke-width:1;stroke-linejoin:miter;stroke-miterlimit:2;stroke-linecap:round;fill-rule:evenodd;fill:#cc6d0d;fill-opacity:1;"/>
        </g>
        <g id="Shape8">
            <desc type="0" basicInfo-basicType="0" basicInfo-roundedRectRadius="12" basicInfo-polygonSides="6" basicInfo-starPoints="5" text="" font-familyName="" font-pointSize="20" font-weight="-1" strokeStyle="0" markerStart="0" markerEnd="0" shadowEnabled="0" shadowOffsetX="0" shadowOffsetY="2" shadowBlur="4" shadowOpacity="160" transform="matrix(0.568744,0,0,0.583333,184.312,138.417)" locked="0" mesh="" flag=""/>
            <path id="shapePath8" d="M195.686,168.167 C184.991,149.589 179.655,124.707 172.937,108.667 " style="stroke:#323232;stroke-opacity:1;stroke-width:1;stroke-linejoin:miter;stroke-miterlimit:2;stroke-linecap:round;fill-rule:evenodd;fill:#cc6d0d;fill-opacity:1;"/>
        </g>
        <g id="Shape9">
            <desc type="0" basicInfo-basicType="4" basicInfo-roundedRectRadius="12" basicInfo-polygonSides="6" basicInfo-starPoints="5" text="" font-familyName="" font-pointSize="20" font-weight="-1" strokeStyle="0" markerStart="0" markerEnd="0" shadowEnabled="0" shadowOffsetX="0" shadowOffsetY="2" shadowBlur="4" shadowOpacity="160" transform="matrix(0.568744,0,0,0.583333,254.836,180.708)" locked="0" mesh="" flag=""/>
            <path id="shapePath9" d="M272.182,180.708 C272.182,189.246 264.416,196.167 254.836,196.167 C245.256,196.167 237.489,189.246 237.489,180.708 C237.489,172.171 245.256,165.25 254.836,165.25 C264.416,165.25 272.182,172.171 272.182,180.708 Z" style="stroke:#323232;stroke-opacity:1;stroke-width:1;stroke-linejoin:miter;stroke-miterlimit:2;stroke-linecap:round;fill-rule:evenodd;fill:#e6c213;fill-opacity:1;"/>
        </g>
        <g id="Shape10">
            <desc type="0" basicInfo-basicType="4" basicInfo-roundedRectRadius="12" basicInfo-polygonSides="6" basicInfo-starPoints="5" text="" font-familyName="" font-pointSize="20" font-weight="-1" strokeStyle="0" markerStart="0" markerEnd="0" shadowEnabled="0" shadowOffsetX="0" shadowOffsetY="2" shadowBlur="4" shadowOpacity="160" transform="matrix(0.568744,0,0,0.583333,296.638,174.875)" locked="0" mesh="" flag=""/>
            <path id="shapePath10" d="M306.023,174.875 C306.023,180.191 301.821,184.5 296.638,184.5 C291.456,184.5 287.254,180.191 287.254,174.875 C287.254,169.559 291.456,165.25 296.638,165.25 C301.821,165.25 306.023,169.559 306.023,174.875 Z" style="stroke:#323232;stroke-opacity:1;stroke-width:1;stroke-linejoin:miter;stroke-miterlimit:2;stroke-linecap:round;fill-rule:evenodd;fill:#ffffff;fill-opacity:1;"/>
        </g>
        <g id="Shape11">
            <desc type="0" basicInfo-basicType="2" basicInfo-roundedRectRadius="12" basicInfo-polygonSides="6" basicInfo-starPoints="5" text="" font-familyName="" font-pointSize="20" font-weight="-1" strokeStyle="0" markerStart="0" markerEnd="0" shadowEnabled="0" shadowOffsetX="0" shadowOffsetY="2" shadowBlur="4" shadowOpacity="160" transform="matrix(0.568744,0,0,0.583333,297.776,206.083)" locked="0" mesh="" flag=""/>
            <path id="shapePath11" d="M284.979,190.917 C284.979,187.051 288.035,183.917 291.804,183.917 L303.748,183.917 C307.517,183.917 310.573,187.051 310.573,190.917 L310.573,221.25 C310.573,225.116 307.517,228.25 303.748,228.25 L291.804,228.25 C288.035,228.25 284.979,225.116 284.979,221.25 L284.979,190.917 Z" style="stroke:#323232;stroke-opacity:1;stroke-width:1;stroke-linejoin:miter;stroke-miterlimit:2;stroke-linecap:round;fill-rule:evenodd;fill:#ffffff;fill-opacity:1;"/>
        </g>
        <g id="Shape12">
            <desc type="0" basicInfo-basicType="0" basicInfo-roundedRectRadius="12" basicInfo-polygonSides="6" basicInfo-starPoints="5" text="" font-familyName="" font-pointSize="20" font-weight="-1" strokeStyle="0" markerStart="0" markerEnd="0" shadowEnabled="0" shadowOffsetX="0" shadowOffsetY="2" shadowBlur="4" shadowOpacity="160" transform="matrix(0.568744,0,0,0.583333,275.595,190.158)" locked="0" mesh="" flag=""/>
            <path id="shapePath12" d="M285.548,193.25 C277.631,194.639 272.102,189.44 265.642,186.833 " style="stroke:#323232;stroke-opacity:1;stroke-width:1;stroke-linejoin:miter;stroke-miterlimit:2;stroke-linecap:round;fill-rule:evenodd;fill:#ffffff;fill-opacity:1;"/>
        </g>
        <g id="Shape13">
            <desc type="0" basicInfo-basicType="1" basicInfo-roundedRectRadius="12" basicInfo-polygonSides="6" basicInfo-starPoints="5" text="" font-familyName="" font-pointSize="20" font-weight="-1" strokeStyle="0" markerStart="0" markerEnd="0" shadowEnabled="0" shadowOffsetX="0" shadowOffsetY="2" shadowBlur="4" shadowOpacity="160" transform="matrix(0.568744,0,0,0.583333,340.147,176.333)" locked="0" mesh="" flag=""/>
            <path id="shapePath13" d="M329.91,165.833 L350.385,165.833 L350.385,186.833 L329.91,186.833 L329.91,165.833 Z" style="stroke:#323232;stroke-opacity:1;stroke-width:1;stroke-linejoin:miter;stroke-miterlimit:2;stroke-linecap:round;fill-rule:evenodd;fill:#666699;fill-opacity:1;"/>
        </g>
        <g id="Shape14">
            <desc type="0" basicInfo-basicType="0" basicInfo-roundedRectRadius="12" basicInfo-polygonSides="6" basicInfo-starPoints="5" text="" font-familyName="" font-pointSize="20" font-weight="-1" strokeStyle="0" markerStart="0" markerEnd="0" shadowEnabled="0" shadowOffsetX="0" shadowOffsetY="2" shadowBlur="4" shadowOpacity="160" transform="matrix(0.568744,0,0,0.583333,322.232,189.473)" locked="0" mesh="" flag=""/>
            <path id="shapePath14" d="M310.857,193.833 C320.7,194.28 328.099,189.731 333.607,185.083 " style="stroke:#323232;stroke-opacity:1;stroke-width:1;stroke-linejoin:miter;stroke-miterlimit:2;stroke-linecap:round;fill-rule:evenodd;fill:#ffffff;fill-opacity:1;"/>
        </g>
        <g id="Shape15">
            <desc type="0" basicInfo-basicType="0" basicInfo-roundedRectRadius="12" basicInfo-polygonSides="6" basicInfo-starPoints="5" text="" font-familyName="" font-pointSize="20" font-weight="-1" strokeStyle="0" markerStart="0" markerEnd="0" shadowEnabled="0" shadowOffsetX="0" shadowOffsetY="2" shadowBlur="4" shadowOpacity="160" transform="matrix(0.568744,0,0,0.583333,286.117,137.25)" locked="0" mesh="" flag=""/>
            <path id="shapePath15" d="M262.514,168.167 C276.139,143.01 297.706,129.29 309.72,106.333 " style="stroke:#323232;stroke-opacity:1;stroke-width:1;stroke-linejoin:miter;stroke-miterlimit:2;stroke-linecap:round;fill-rule:evenodd;fill:#cc6d0d;fill-opacity:1;"/>
        </g>
        <g id="Shape16">
            <desc type="0" basicInfo-basicType="0" basicInfo-roundedRectRadius="12" basicInfo-polygonSides="6" basicInfo-starPoints="5" text="" font-familyName="" font-pointSize="20" font-weight="-1" strokeStyle="0" markerStart="0" markerEnd="0" shadowEnabled="0" shadowOffsetX="0" shadowOffsetY="2" shadowBlur="4" shadowOpacity="160" transform="matrix(0.568744,0,0,0.583333,322.801,135.5)" locked="0" mesh="" flag=""/>
            <path id="shapePath16" d="M334.176,165.25 C323.481,146.672 318.144,121.791 311.426,105.75 " style="stroke:#323232;stroke-opacity:1;stroke-width:1;stroke-linejoin:miter;stroke-miterlimit:2;stroke-linecap:round;fill-rule:evenodd;fill:#cc6d0d;fill-opacity:1;"/>
        </g>
        <g id="Shape17">
            <desc type="0" basicInfo-basicType="4" basicInfo-roundedRectRadius="12" basicInfo-polygonSides="6" basicInfo-starPoints="5" text="" font-familyName="" font-pointSize="20" font-weight="-1" strokeStyle="0" markerStart="0" markerEnd="0" shadowEnabled="0" shadowOffsetX="0" shadowOffsetY="2" shadowBlur="4" shadowOpacity="160" transform="matrix(0.568744,0,0,0.583333,396.989,182.458)" locked="0" mesh="" flag=""/>
            <path id="shapePath17" d="M414.336,182.458 C414.336,190.996 406.569,197.917 396.989,197.917 C387.409,197.917 379.642,190.996 379.642,182.458 C379.642,173.921 387.409,167 396.989,167 C406.569,167 414.336,173.921 414.336,182.458 Z" style="stroke:#323232;stroke-opacity:1;stroke-width:1;stroke-linejoin:miter;stroke-miterlimit:2;stroke-linecap:round;fill-rule:evenodd;fill:#e6c213;fill-opacity:1;"/>
        </g>
        <g id="Shape18">
            <desc type="0" basicInfo-basicType="4" basicInfo-roundedRectRadius="12" basicInfo-polygonSides="6" basicInfo-starPoints="5" text="" font-familyName="" font-pointSize="20" font-weight="-1" strokeStyle="0" markerStart="0" markerEnd="0" shadowEnabled="0" shadowOffsetX="0" shadowOffsetY="2" shadowBlur="4" shadowOpacity="160" transform="matrix(0.568744,0,0,0.583333,438.792,176.625)" locked="0" mesh="" flag=""/>
            <path id="shapePath18" d="M448.176,176.625 C448.176,181.941 443.975,186.25 438.792,186.25 C433.609,186.25 429.408,181.941 429.408,176.625 C429.408,171.309 433.609,167 438.792,167 C443.975,167 448.176,171.309 448.176,176.625 Z" style="stroke:#323232;stroke-opacity:1;stroke-width:1;stroke-linejoin:miter;stroke-miterlimit:2;stroke-linecap:round;fill-rule:evenodd;fill:#ffffff;fill-opacity:1;"/>
        </g>
        <g id="Shape19">
            <desc type="0" basicInfo-basicType="2" basicInfo-roundedRectRadius="12" basicInfo-polygonSides="6" basicInfo-starPoints="5" text="" font-familyName="" font-pointSize="20" font-weight="-1" strokeStyle="0" markerStart="0" markerEnd="0" shadowEnabled="0" shadowOffsetX="0" shadowOffsetY="2" shadowBlur="4" shadowOpacity="160" transform="matrix(0.568744,0,0,0.583333,439.929,207.833)" locked="0" mesh="" flag=""/>
            <path id="shapePath19" d="M427.133,192.667 C427.133,188.801 430.188,185.667 433.958,185.667 L445.901,185.667 C449.67,185.667 452.726,188.801 452.726,192.667 L452.726,223 C452.726,226.866 449.67,230 445.901,230 L433.958,230 C430.188,230 427.133,226.866 427.133,223 L427.133,192.667 Z" style="stroke:#323232;stroke-opacity:1;stroke-width:1;stroke-linejoin:miter;stroke-miterlimit:2;stroke-linecap:round;fill-rule:evenodd;fill:#ffffff;fill-opacity:1;"/>
        </g>
        <g id="Shape20">
            <desc type="0" basicInfo-basicType="0" basicInfo-roundedRectRadius="12" basicInfo-polygonSides="6" basicInfo-starPoints="5" text="" font-familyName="" font-pointSize="20" font-weight="-1" strokeStyle="0" markerStart="0" markerEnd="0" shadowEnabled="0" shadowOffsetX="0" shadowOffsetY="2" shadowBlur="4" shadowOpacity="160" transform="matrix(0.568744,0,0,0.583333,417.748,191.908)" locked="0" mesh="" flag=""/>
            <path id="shapePath20" d="M427.701,195 C419.784,196.389 414.255,191.19 407.795,188.583 " style="stroke:#323232;stroke-opacity:1;stroke-width:1;stroke-linejoin:miter;stroke-miterlimit:2;stroke-linecap:round;fill-rule:evenodd;fill:#ffffff;fill-opacity:1;"/>
        </g>
        <g id="Shape21">
            <desc type="0" basicInfo-basicType="1" basicInfo-roundedRectRadius="12" basicInfo-polygonSides="6" basicInfo-starPoints="5" text="" font-familyName="" font-pointSize="20" font-weight="-1" strokeStyle="0" markerStart="0" markerEnd="0" shadowEnabled="0" shadowOffsetX="0" shadowOffsetY="2" shadowBlur="4" shadowOpacity="160" transform="matrix(0.568744,0,0,0.583333,482.301,178.083)" locked="0" mesh="" flag=""/>
            <path id="shapePath21" d="M472.063,167.583 L492.538,167.583 L492.538,188.583 L472.063,188.583 L472.063,167.583 Z" style="stroke:#323232;stroke-opacity:1;stroke-width:1;stroke-linejoin:miter;stroke-miterlimit:2;stroke-linecap:round;fill-rule:evenodd;fill:#666699;fill-opacity:1;"/>
        </g>
        <g id="Shape22">
            <desc type="0" basicInfo-basicType="0" basicInfo-roundedRectRadius="12" basicInfo-polygonSides="6" basicInfo-starPoints="5" text="" font-familyName="" font-pointSize="20" font-weight="-1" strokeStyle="0" markerStart="0" markerEnd="0" shadowEnabled="0" shadowOffsetX="0" shadowOffsetY="2" shadowBlur="4" shadowOpacity="160" transform="matrix(0.568744,0,0,0.583333,464.385,191.224)" locked="0" mesh="" flag=""/>
            <path id="shapePath22" d="M453.01,195.583 C462.853,196.03 470.252,191.481 475.76,186.833 " style="stroke:#323232;stroke-opacity:1;stroke-width:1;stroke-linejoin:miter;stroke-miterlimit:2;stroke-linecap:round;fill-rule:evenodd;fill:#ffffff;fill-opacity:1;"/>
        </g>
        <g id="Shape23">
            <desc type="0" basicInfo-basicType="0" basicInfo-roundedRectRadius="12" basicInfo-polygonSides="6" basicInfo-starPoints="5" text="" font-familyName="" font-pointSize="20" font-weight="-1" strokeStyle="0" markerStart="0" markerEnd="0" shadowEnabled="0" shadowOffsetX="0" shadowOffsetY="2" shadowBlur="4" shadowOpacity="160" transform="matrix(0.568744,0,0,0.583333,428.27,139)" locked="0" mesh="" flag=""/>
            <path id="shapePath23" d="M404.667,169.917 C418.293,144.76 439.859,131.04 451.873,108.083 " style="stroke:#323232;stroke-opacity:1;stroke-width:1;stroke-linejoin:miter;stroke-miterlimit:2;stroke-linecap:round;fill-rule:evenodd;fill:#cc6d0d;fill-opacity:1;"/>
        </g>
        <g id="Shape24">
            <desc type="0" basicInfo-basicType="0" basicInfo-roundedRectRadius="12" basicInfo-polygonSides="6" basicInfo-starPoints="5" text="" font-familyName="" font-pointSize="20" font-weight="-1" strokeStyle="0" markerStart="0" markerEnd="0" shadowEnabled="0" shadowOffsetX="0" shadowOffsetY="2" shadowBlur="4" shadowOpacity="160" transform="matrix(0.568744,0,0,0.583333,464.954,137.25)" locked="0" mesh="" flag=""/>
            <path id="shapePath24" d="M476.329,167 C465.634,148.422 460.298,123.541 453.579,107.5 " style="stroke:#323232;stroke-opacity:1;stroke-width:1;stroke-linejoin:miter;stroke-miterlimit:2;stroke-linecap:round;fill-rule:evenodd;fill:#cc6d0d;fill-opacity:1;"/>
        </g>
        <g id="Shape25">
            <desc type="0" basicInfo-basicType="4" basicInfo-roundedRectRadius="12" basicInfo-polygonSides="6" basicInfo-starPoints="5" text="" font-familyName="" font-pointSize="20" font-weight="-1" strokeStyle="0" markerStart="0" markerEnd="0" shadowEnabled="0" shadowOffsetX="0" shadowOffsetY="2" shadowBlur="4" shadowOpacity="160" transform="matrix(0.568744,0,0,0.583333,534.727,178.45)" locked="0" mesh="" flag=""/>
            <path id="shapePath25" d="M552.074,178.45 C552.074,186.987 544.308,193.908 534.728,193.908 C525.147,193.908 517.381,186.987 517.381,178.45 C517.381,169.913 525.147,162.992 534.728,162.992 C544.308,162.992 552.074,169.913 552.074,178.45 Z" style="stroke:#323232;stroke-opacity:1;stroke-width:1;stroke-linejoin:miter;stroke-miterlimit:2;stroke-linecap:round;fill-rule:evenodd;fill:#e6c213;fill-opacity:1;"/>
        </g>
        <g id="Shape26">
            <desc type="0" basicInfo-basicType="4" basicInfo-roundedRectRadius="12" basicInfo-polygonSides="6" basicInfo-starPoints="5" text="" font-familyName="" font-pointSize="20" font-weight="-1" strokeStyle="0" markerStart="0" markerEnd="0" shadowEnabled="0" shadowOffsetX="0" shadowOffsetY="2" shadowBlur="4" shadowOpacity="160" transform="matrix(0.568744,0,0,0.583333,576.53,172.617)" locked="0" mesh="" flag=""/>
            <path id="shapePath26" d="M585.914,172.617 C585.914,177.932 581.713,182.242 576.53,182.242 C571.347,182.242 567.146,177.932 567.146,172.617 C567.146,167.301 571.347,162.992 576.53,162.992 C581.713,162.992 585.914,167.301 585.914,172.617 Z" style="stroke:#323232;stroke-opacity:1;stroke-width:1;stroke-linejoin:miter;stroke-miterlimit:2;stroke-linecap:round;fill-rule:evenodd;fill:#ffffff;fill-opacity:1;"/>
        </g>
        <g id="Shape27">
            <desc type="0" basicInfo-basicType="2" basicInfo-roundedRectRadius="12" basicInfo-polygonSides="6" basicInfo-starPoints="5" text="" font-familyName="" font-pointSize="20" font-weight="-1" strokeStyle="0" markerStart="0" markerEnd="0" shadowEnabled="0" shadowOffsetX="0" shadowOffsetY="2" shadowBlur="4" shadowOpacity="160" transform="matrix(0.568744,0,0,0.583333,577.668,203.825)" locked="0" mesh="" flag=""/>
            <path id="shapePath27" d="M564.871,188.658 C564.871,184.792 567.927,181.658 571.696,181.658 L583.639,181.658 C587.409,181.658 590.464,184.792 590.464,188.658 L590.464,218.992 C590.464,222.858 587.409,225.992 583.639,225.992 L571.696,225.992 C567.927,225.992 564.871,222.858 564.871,218.992 L564.871,188.658 Z" style="stroke:#323232;stroke-opacity:1;stroke-width:1;stroke-linejoin:miter;stroke-miterlimit:2;stroke-linecap:round;fill-rule:evenodd;fill:#ffffff;fill-opacity:1;"/>
        </g>
        <g id="Shape28">
            <desc type="0" basicInfo-basicType="0" basicInfo-roundedRectRadius="12" basicInfo-polygonSides="6" basicInfo-starPoints="5" text="" font-familyName="" font-pointSize="20" font-weight="-1" strokeStyle="0" markerStart="0" markerEnd="0" shadowEnabled="0" shadowOffsetX="0" shadowOffsetY="2" shadowBlur="4" shadowOpacity="160" transform="matrix(0.568744,0,0,0.583333,555.487,187.899)" locked="0" mesh="" flag=""/>
            <path id="shapePath28" d="M565.44,190.992 C557.522,192.381 551.994,187.182 545.534,184.575 " style="stroke:#323232;stroke-opacity:1;stroke-width:1;stroke-linejoin:miter;stroke-miterlimit:2;stroke-linecap:round;fill-rule:evenodd;fill:#ffffff;fill-opacity:1;"/>
        </g>
        <g id="Shape29">
            <desc type="0" basicInfo-basicType="1" basicInfo-roundedRectRadius="12" basicInfo-polygonSides="6" basicInfo-starPoints="5" text="" font-familyName="" font-pointSize="20" font-weight="-1" strokeStyle="0" markerStart="0" markerEnd="0" shadowEnabled="0" shadowOffsetX="0" shadowOffsetY="2" shadowBlur="4" shadowOpacity="160" transform="matrix(0.568744,0,0,0.583333,620.039,174.075)" locked="0" mesh="" flag=""/>
            <path id="shapePath29" d="M609.802,163.575 L630.276,163.575 L630.276,184.575 L609.802,184.575 L609.802,163.575 Z" style="stroke:#323232;stroke-opacity:1;stroke-width:1;stroke-linejoin:miter;stroke-miterlimit:2;stroke-linecap:round;fill-rule:evenodd;fill:#666699;fill-opacity:1;"/>
        </g>
        <g id="Shape30">
            <desc type="0" basicInfo-basicType="0" basicInfo-roundedRectRadius="12" basicInfo-polygonSides="6" basicInfo-starPoints="5" text="" font-familyName="" font-pointSize="20" font-weight="-1" strokeStyle="0" markerStart="0" markerEnd="0" shadowEnabled="0" shadowOffsetX="0" shadowOffsetY="2" shadowBlur="4" shadowOpacity="160" transform="matrix(0.568744,0,0,0.583333,602.124,187.215)" locked="0" mesh="" flag=""/>
            <path id="shapePath30" d="M590.749,191.575 C600.592,192.021 607.99,187.472 613.499,182.825 " style="stroke:#323232;stroke-opacity:1;stroke-width:1;stroke-linejoin:miter;stroke-miterlimit:2;stroke-linecap:round;fill-rule:evenodd;fill:#ffffff;fill-opacity:1;"/>
        </g>
        <g id="Shape31">
            <desc type="0" basicInfo-basicType="0" basicInfo-roundedRectRadius="12" basicInfo-polygonSides="6" basicInfo-starPoints="5" text="" font-familyName="" font-pointSize="20" font-weight="-1" strokeStyle="0" markerStart="0" markerEnd="0" shadowEnabled="0" shadowOffsetX="0" shadowOffsetY="2" shadowBlur="4" shadowOpacity="160" transform="matrix(0.568744,0,0,0.583333,566.008,134.992)" locked="0" mesh="" flag=""/>
            <path id="shapePath31" d="M542.406,165.908 C556.031,140.752 577.597,127.032 589.611,104.075 " style="stroke:#323232;stroke-opacity:1;stroke-width:1;stroke-linejoin:miter;stroke-miterlimit:2;stroke-linecap:round;fill-rule:evenodd;fill:#cc6d0d;fill-opacity:1;"/>
        </g>
        <g id="Shape32">
            <desc type="0" basicInfo-basicType="0" basicInfo-roundedRectRadius="12" basicInfo-polygonSides="6" basicInfo-starPoints="5" text="" font-familyName="" font-pointSize="20" font-weight="-1" strokeStyle="0" markerStart="0" markerEnd="0" shadowEnabled="0" shadowOffsetX="0" shadowOffsetY="2" shadowBlur="4" shadowOpacity="160" transform="matrix(0.568744,0,0,0.583333,602.692,133.242)" locked="0" mesh="" flag=""/>
            <path id="shapePath32" d="M614.067,162.992 C603.372,144.414 598.036,119.532 591.318,103.492 " style="stroke:#323232;stroke-opacity:1;stroke-width:1;stroke-linejoin:miter;stroke-miterlimit:2;stroke-linecap:round;fill-rule:evenodd;fill:#cc6d0d;fill-opacity:1;"/>
        </g>
        <g id="Shape33">
            <desc type="0" basicInfo-basicType="0" basicInfo-roundedRectRadius="12" basicInfo-polygonSides="6" basicInfo-starPoints="5" text="" font-familyName="" font-pointSize="20" font-weight="-1" strokeStyle="0" markerStart="0" markerEnd="0" shadowEnabled="0" shadowOffsetX="0" shadowOffsetY="2" shadowBlur="4" shadowOpacity="160" transform="matrix(1,0,0,1,209,121.194)" locked="0" mesh="" flag=""/>
            <path id="shapePath33" d="M172.5,110.083 C174.594,88.4798 197.89,75.8648 216.5,88.0833 C234.942,107.388 235.819,140.018 245.5,159.083 " style="stroke:#323232;stroke-opacity:1;stroke-width:1;stroke-linejoin:miter;stroke-miterlimit:2;stroke-linecap:round;fill-rule:evenodd;fill:#ffffff;fill-opacity:0;"/>
        </g>
        <g id="Shape34">
            <desc type="0" basicInfo-basicType="0" basicInfo-roundedRectRadius="12" basicInfo-polygonSides="6" basicInfo-starPoints="5" text="" font-familyName="" font-pointSize="20" font-weight="-1" strokeStyle="0" markerStart="0" markerEnd="0" shadowEnabled="0" shadowOffsetX="0" shadowOffsetY="2" shadowBlur="4" shadowOpacity="160" transform="matrix(1,0,0,1,350,123.842)" locked="0" mesh="" flag=""/>
            <path id="shapePath34" d="M311.5,107.083 C314.324,92.6653 322.901,78.8207 339.5,82.0833 C369.764,101.673 381.27,134.159 388.5,166.083 " style="stroke:#323232;stroke-opacity:1;stroke-width:1;stroke-linejoin:miter;stroke-miterlimit:2;stroke-linecap:round;fill-rule:evenodd;fill:#ffffff;fill-opacity:0;"/>
        </g>
        <g id="Shape35">
            <desc type="0" basicInfo-basicType="0" basicInfo-roundedRectRadius="12" basicInfo-polygonSides="6" basicInfo-starPoints="5" text="" font-familyName="" font-pointSize="20" font-weight="-1" strokeStyle="0" markerStart="0" markerEnd="0" shadowEnabled="0" shadowOffsetX="0" shadowOffsetY="2" shadowBlur="4" shadowOpacity="160" transform="matrix(1,0,0,1,493.5,121.405)" locked="0" mesh="" flag=""/>
            <path id="shapePath35" d="M454.5,108.083 C459.659,91.5638 470.092,74.783 490.5,81.0833 C515.23,100.13 526.504,132.735 532.5,163.083 " style="stroke:#323232;stroke-opacity:1;stroke-width:1;stroke-linejoin:miter;stroke-miterlimit:2;stroke-linecap:round;fill:none;"/>
        </g>
        <g id="Shape36">
            <desc type="0" basicInfo-basicType="0" basicInfo-roundedRectRadius="12" basicInfo-polygonSides="6" basicInfo-starPoints="5" text="" font-familyName="" font-pointSize="20" font-weight="-1" strokeStyle="0" markerStart="0" markerEnd="0" shadowEnabled="0" shadowOffsetX="0" shadowOffsetY="2" shadowBlur="4" shadowOpacity="160" transform="matrix(1,0,0,1,633,107.715)" locked="0" mesh="" flag=""/>
            <path id="shapePath36" d="M591.5,104.083 C596.247,82.4104 617.102,71.949 638.5,78.0833 C654.586,98.4684 669.866,114.466 674.5,139.083 " style="stroke:#323232;stroke-opacity:1;stroke-width:1;stroke-linejoin:miter;stroke-miterlimit:2;stroke-linecap:round;fill:none;"/>
        </g>
        <g id="Shape37">
            <desc type="0" basicInfo-basicType="0" basicInfo-roundedRectRadius="12" basicInfo-polygonSides="6" basicInfo-starPoints="5" text="" font-familyName="" font-pointSize="20" font-weight="-1" strokeStyle="0" markerStart="0" markerEnd="0" shadowEnabled="0" shadowOffsetX="0" shadowOffsetY="2" shadowBlur="4" shadowOpacity="160" transform="matrix(1,0,0,1,173,106.083)" locked="0" mesh="" flag=""/>
            <path id="shapePath37" d="M173,95.0833 L174.622,100.853 L179.172,97.1842 L177.247,102.851 L182.986,102.684 L178.25,106.083 L182.986,109.483 L177.247,109.316 L179.172,114.983 L174.622,111.314 L173,117.083 L171.378,111.314 L166.828,114.982 L168.753,109.316 L163.014,109.482 L167.75,106.083 L163.014,102.684 L168.753,102.85 L166.828,97.1841 L171.378,100.853 L173,95.0833 Z" style="stroke:#323232;stroke-opacity:1;stroke-width:1;stroke-linejoin:miter;stroke-miterlimit:2;stroke-linecap:round;fill-rule:evenodd;fill:#cc6600;fill-opacity:1;"/>
        </g>
        <g id="Shape38">
            <desc type="0" basicInfo-basicType="0" basicInfo-roundedRectRadius="12" basicInfo-polygonSides="6" basicInfo-starPoints="5" text="" font-familyName="" font-pointSize="20" font-weight="-1" strokeStyle="0" markerStart="0" markerEnd="0" shadowEnabled="0" shadowOffsetX="0" shadowOffsetY="2" shadowBlur="4" shadowOpacity="160" transform="matrix(1,0,0,1,311.5,108.083)" locked="0" mesh="" flag=""/>
            <path id="shapePath38" d="M311.5,99.0833 L312.891,103.804 L316.79,100.802 L315.141,105.438 L320.06,105.302 L316,108.083 L320.06,110.865 L315.141,110.728 L316.79,115.365 L312.891,112.363 L311.5,117.083 L310.109,112.363 L306.21,115.364 L307.859,110.728 L302.94,110.864 L307,108.083 L302.941,105.302 L307.859,105.438 L306.21,100.802 L310.109,103.804 L311.5,99.0833 Z" style="stroke:#323232;stroke-opacity:1;stroke-width:1;stroke-linejoin:miter;stroke-miterlimit:2;stroke-linecap:round;fill-rule:evenodd;fill:#cc6600;fill-opacity:1;"/>
        </g>
        <g id="Shape39">
            <desc type="0" basicInfo-basicType="0" basicInfo-roundedRectRadius="12" basicInfo-polygonSides="6" basicInfo-starPoints="5" text="" font-familyName="" font-pointSize="20" font-weight="-1" strokeStyle="0" markerStart="0" markerEnd="0" shadowEnabled="0" shadowOffsetX="0" shadowOffsetY="2" shadowBlur="4" shadowOpacity="160" transform="matrix(1,0,0,1,454.5,109.25)" locked="0" mesh="" flag=""/>
            <path id="shapePath39" d="M454.5,99.75 L456.045,104.732 L460.378,101.564 L458.545,106.458 L464.011,106.314 L459.5,109.25 L464.011,112.186 L458.545,112.042 L460.378,116.936 L456.045,113.768 L454.5,118.75 L452.955,113.768 L448.622,116.936 L450.455,112.042 L444.989,112.186 L449.5,109.25 L444.989,106.314 L450.455,106.458 L448.622,101.564 L452.955,104.732 L454.5,99.75 Z" style="stroke:#323232;stroke-opacity:1;stroke-width:1;stroke-linejoin:miter;stroke-miterlimit:2;stroke-linecap:round;fill-rule:evenodd;fill:#cc6600;fill-opacity:1;"/>
        </g>
        <g id="Shape40">
            <desc type="0" basicInfo-basicType="0" basicInfo-roundedRectRadius="12" basicInfo-polygonSides="6" basicInfo-starPoints="5" text="" font-familyName="" font-pointSize="20" font-weight="-1" strokeStyle="0" markerStart="0" markerEnd="0" shadowEnabled="0" shadowOffsetX="0" shadowOffsetY="2" shadowBlur="4" shadowOpacity="160" transform="matrix(1,0,0,1,589.5,104.083)" locked="0" mesh="" flag=""/>
            <path id="shapePath40" d="M589.5,93.0833 L591.045,98.8525 L595.378,95.1842 L593.545,100.851 L599.011,100.684 L594.5,104.083 L599.011,107.483 L593.545,107.316 L595.378,112.983 L591.045,109.314 L589.5,115.083 L587.955,109.314 L583.622,112.982 L585.455,107.316 L579.989,107.482 L584.5,104.083 L579.99,100.684 L585.455,100.85 L583.622,95.1841 L587.955,98.8525 L589.5,93.0833 Z" style="stroke:#323232;stroke-opacity:1;stroke-width:1;stroke-linejoin:miter;stroke-miterlimit:2;stroke-linecap:round;fill-rule:evenodd;fill:#cc6600;fill-opacity:1;"/>
        </g>
        <g id="Shape41">
            <desc type="0" basicInfo-basicType="0" basicInfo-roundedRectRadius="12" basicInfo-polygonSides="6" basicInfo-starPoints="5" text="" font-familyName="" font-pointSize="20" font-weight="-1" strokeStyle="0" markerStart="0" markerEnd="0" shadowEnabled="0" shadowOffsetX="0" shadowOffsetY="2" shadowBlur="4" shadowOpacity="160" transform="matrix(1,0,0,1,241.5,151.083)" locked="0" mesh="" flag=""/>
            <path id="shapePath41" d="M233.5,153.083 C233.5,153.083 245.5,158.083 245.5,158.083 C245.5,158.083 249.5,144.083 249.5,144.083 C249.5,144.083 233.5,153.083 233.5,153.083 Z" style="stroke:#323232;stroke-opacity:1;stroke-width:1;stroke-linejoin:miter;stroke-miterlimit:2;stroke-linecap:round;fill-rule:evenodd;fill:#cc6600;fill-opacity:1;"/>
        </g>
        <g id="Shape42">
            <desc type="0" basicInfo-basicType="0" basicInfo-roundedRectRadius="12" basicInfo-polygonSides="6" basicInfo-starPoints="5" text="" font-familyName="" font-pointSize="20" font-weight="-1" strokeStyle="0" markerStart="0" markerEnd="0" shadowEnabled="0" shadowOffsetX="0" shadowOffsetY="2" shadowBlur="4" shadowOpacity="160" transform="matrix(1,0,0,1,385,162.583)" locked="0" mesh="" flag=""/>
            <path id="shapePath42" d="M377,164.583 C377,164.583 389,169.583 389,169.583 C389,169.583 393,155.583 393,155.583 C393,155.583 377,164.583 377,164.583 Z" style="stroke:#323232;stroke-opacity:1;stroke-width:1;stroke-linejoin:miter;stroke-miterlimit:2;stroke-linecap:round;fill-rule:evenodd;fill:#cc6600;fill-opacity:1;"/>
        </g>
        <g id="Shape43">
            <desc type="0" basicInfo-basicType="0" basicInfo-roundedRectRadius="12" basicInfo-polygonSides="6" basicInfo-starPoints="5" text="" font-familyName="" font-pointSize="20" font-weight="-1" strokeStyle="0" markerStart="0" markerEnd="0" shadowEnabled="0" shadowOffsetX="0" shadowOffsetY="2" shadowBlur="4" shadowOpacity="160" transform="matrix(1,0,0,1,529,158.583)" locked="0" mesh="" flag=""/>
            <path id="shapePath43" d="M521,160.583 C521,160.583 533,165.583 533,165.583 C533,165.583 537,151.583 537,151.583 C537,151.583 521,160.583 521,160.583 Z" style="stroke:#323232;stroke-opacity:1;stroke-width:1;stroke-linejoin:miter;stroke-miterlimit:2;stroke-linecap:round;fill-rule:evenodd;fill:#cc6600;fill-opacity:1;"/>
        </g>
        <g id="Shape44">
            <desc type="0" basicInfo-basicType="1" basicInfo-roundedRectRadius="12" basicInfo-polygonSides="6" basicInfo-starPoints="5" text="" font-familyName="" font-pointSize="20" font-weight="-1" strokeStyle="0" markerStart="0" markerEnd="0" shadowEnabled="0" shadowOffsetX="0" shadowOffsetY="2" shadowBlur="4" shadowOpacity="160" transform="matrix(1,0,0,1,370.391,104.646)" locked="0" mesh="" flag=""/>
            <path id="shapePath44" d="M69.7216,87.1161 L671.061,87.1161 L671.061,122.177 L69.7216,122.177 L69.7216,87.1161 Z" style="stroke:#323232;stroke-opacity:1;stroke-width:1;stroke-linejoin:miter;stroke-miterlimit:2;stroke-linecap:round;fill-rule:evenodd;fill:#009966;fill-opacity:0.168627;"/>
        </g>
        <g id="Shape45">
            <desc type="2" basicInfo-basicType="0" basicInfo-roundedRectRadius="12" basicInfo-polygonSides="6" basicInfo-starPoints="5" text="Model" font-familyName="Monaco" font-pointSize="28" font-weight="50" strokeStyle="0" markerStart="0" markerEnd="0" shadowEnabled="0" shadowOffsetX="0" shadowOffsetY="2" shadowBlur="4" shadowOpacity="160" transform="matrix(0.793415,0,0,0.724553,33.5987,108.317)" locked="0" mesh="" flag=""/>
            <path id="shapePath45" d="M3.84104,120.635 L2.0729,120.635 L2.0729,105.261 L4.27494,105.261 L8.15833,115.384 L12.0417,105.261 L14.1895,105.261 L14.1895,120.635 L12.1719,120.635 L12.1719,110.838 L12.2261,109.49 L12.1719,109.49 L11.6946,110.838 L9.09121,117.564 L6.90002,117.564 L4.26409,110.838 L3.84104,109.49 L3.7868,109.49 L3.84104,110.838 L3.84104,120.635 M21.4635,120.942 C19.7279,120.942 18.3395,120.389 17.2981,119.282 C16.2567,118.176 15.7361,116.781 15.7361,115.097 C15.7361,113.413 16.2567,112.02 17.2981,110.917 C18.3395,109.814 19.7279,109.263 21.4635,109.263 C23.1919,109.263 24.5768,109.814 25.6181,110.917 C26.6595,112.02 27.1801,113.413 27.1801,115.097 C27.1801,116.781 26.6595,118.176 25.6181,119.282 C24.5768,120.389 23.1919,120.942 21.4635,120.942 M21.4635,119.406 C22.541,119.406 23.398,119.023 24.0344,118.257 C24.6708,117.491 24.989,116.438 24.989,115.097 C24.989,113.763 24.6708,112.713 24.0344,111.947 C23.398,111.181 22.541,110.798 21.4635,110.798 C20.3788,110.798 19.5182,111.181 18.8818,111.947 C18.2454,112.713 17.9273,113.763 17.9273,115.097 C17.9273,116.438 18.2454,117.491 18.8818,118.257 C19.5182,119.023 20.3788,119.406 21.4635,119.406 M37.8928,118.148 C37.2781,119.073 36.5387,119.77 35.6745,120.238 C34.8103,120.707 34.0166,120.942 33.2935,120.942 C32.281,120.942 31.3717,120.542 30.5653,119.743 C29.759,118.944 29.3558,117.732 29.3558,116.108 C29.3558,114.826 29.6234,113.682 30.1586,112.675 C30.6937,111.668 31.4096,110.872 32.3063,110.288 C33.2031,109.703 34.3131,109.411 35.6365,109.411 C36.0198,109.411 36.5983,109.447 37.3721,109.52 C37.4878,109.533 37.6614,109.55 37.8928,109.57 L37.8928,104.646 L39.9213,104.646 L39.9213,120.635 L37.8928,120.635 L37.8928,118.148 M37.8928,115.959 L37.8928,111.214 C37.1769,111.042 36.5116,110.956 35.8969,110.956 C34.653,110.956 33.6171,111.396 32.7891,112.274 C31.961,113.152 31.547,114.348 31.547,115.86 C31.547,116.956 31.773,117.783 32.225,118.341 C32.677,118.899 33.1922,119.178 33.7708,119.178 C34.3999,119.178 35.0941,118.888 35.8535,118.307 C36.6128,117.726 37.2926,116.943 37.8928,115.959 M53.2048,119.902 C51.5921,120.602 50.0662,120.952 48.6271,120.952 C47.5352,120.952 46.5589,120.704 45.6983,120.209 C44.8378,119.713 44.1489,119.005 43.6319,118.084 C43.1148,117.163 42.8563,116.177 42.8563,115.127 C42.8563,114.116 43.1022,113.146 43.5939,112.215 C44.0857,111.283 44.7727,110.559 45.6549,110.04 C46.5372,109.522 47.5207,109.263 48.6054,109.263 C50.0445,109.263 51.1998,109.731 52.0712,110.669 C52.9426,111.607 53.3783,113.053 53.3783,115.008 L53.3783,115.404 L45.0258,115.404 C45.0258,116.17 45.2011,116.87 45.5519,117.504 C45.9026,118.138 46.3636,118.614 46.9349,118.931 C47.5062,119.248 48.1571,119.406 48.8875,119.406 C50.1892,119.406 51.6283,119.01 53.2048,118.218 L53.2048,119.902 M45.1451,114.027 L51.1871,114.027 L51.1871,113.76 C51.1871,112.855 50.9449,112.135 50.4604,111.6 C49.9758,111.065 49.3286,110.798 48.5187,110.798 C47.7015,110.798 46.9946,111.07 46.398,111.615 C45.8014,112.16 45.3838,112.964 45.1451,114.027 M59.7086,120.635 L59.7086,106.192 L56.0856,106.192 L56.0856,104.646 L61.7262,104.646 L61.7262,119.099 L65.512,119.099 L65.512,120.635 L59.7086,120.635 " style="stroke:#323232;stroke-opacity:1;stroke-width:1;stroke-linejoin:miter;stroke-miterlimit:2;stroke-linecap:round;fill-rule:evenodd;fill:#333333;fill-opacity:1;"/>
        </g>
        <g id="Shape46">
            <desc type="0" basicInfo-basicType="0" basicInfo-roundedRectRadius="12" basicInfo-polygonSides="6" basicInfo-starPoints="5" text="" font-familyName="Helvetica" font-pointSize="28" font-weight="50" strokeStyle="0" markerStart="0" markerEnd="0" shadowEnabled="0" shadowOffsetX="0" shadowOffsetY="2" shadowBlur="4" shadowOpacity="160" transform="matrix(1.48772,0,0,0.112193,82.4074,198.415)" locked="0" mesh="" flag=""/>
            <path id="shapePath46" d="M106.907,194.422 C106.907,194.422 57.9079,202.409 57.9079,202.409 C57.9079,202.409 106.907,194.422 106.907,194.422 Z" style="stroke:#323232;stroke-opacity:1;stroke-width:1;stroke-linejoin:miter;stroke-miterlimit:2;stroke-linecap:round;fill-rule:evenodd;fill:#333333;fill-opacity:1;"/>
        </g>
        <g id="Shape47">
            <desc type="2" basicInfo-basicType="0" basicInfo-roundedRectRadius="12" basicInfo-polygonSides="6" basicInfo-starPoints="5" text="App" font-familyName="Monaco" font-pointSize="25" font-weight="50" strokeStyle="0" markerStart="0" markerEnd="0" shadowEnabled="0" shadowOffsetX="0" shadowOffsetY="2" shadowBlur="4" shadowOpacity="160" transform="matrix(0.80683,0,0,0.690123,40.4716,205.131)" locked="0" mesh="" flag=""/>
            <path id="shapePath47" d="M24.9571,215.483 L23.0464,215.483 L27.7542,202.409 L29.7733,202.409 L34.5106,215.483 L32.4128,215.483 L31.3688,212.61 L25.9913,212.61 L24.9571,215.483 M26.464,211.305 L30.9256,211.305 L29.0838,206.343 L28.6505,205.029 L28.2664,206.343 L26.464,211.305 M38.0445,208.188 C38.6091,207.401 39.2821,206.809 40.0635,206.41 C40.8449,206.011 41.5638,205.812 42.2204,205.812 C43.1397,205.812 43.967,206.152 44.7024,206.831 C45.4378,207.511 45.8055,208.541 45.8055,209.923 C45.8055,211.013 45.5609,211.986 45.0717,212.842 C44.5825,213.699 43.9309,214.375 43.1167,214.872 C42.3025,215.369 41.2946,215.618 40.093,215.618 C39.7516,215.618 39.2263,215.587 38.5172,215.525 C38.4122,215.514 38.2546,215.5 38.0445,215.483 L38.0445,219.139 L36.2125,219.139 L36.2125,206.073 L38.0445,206.073 L38.0445,208.188 M38.0445,210.049 L38.0445,214.085 C38.7076,214.231 39.3183,214.304 39.8764,214.304 C40.986,214.304 41.92,213.932 42.6784,213.188 C43.4368,212.443 43.816,211.425 43.816,210.134 C43.816,209.196 43.6091,208.491 43.1955,208.019 C42.7818,207.547 42.3124,207.312 41.7871,207.312 C41.2158,207.312 40.5871,207.559 39.901,208.053 C39.2148,208.547 38.596,209.213 38.0445,210.049 M50.1469,208.188 C50.7116,207.401 51.3846,206.809 52.1659,206.41 C52.9473,206.011 53.6663,205.812 54.3229,205.812 C55.2421,205.812 56.0694,206.152 56.8048,206.831 C57.5402,207.511 57.9079,208.541 57.9079,209.923 C57.9079,211.013 57.6633,211.986 57.1742,212.842 C56.685,213.699 56.0333,214.375 55.2191,214.872 C54.4049,215.369 53.3971,215.618 52.1955,215.618 C51.8541,215.618 51.3288,215.587 50.6197,215.525 C50.5146,215.514 50.357,215.5 50.1469,215.483 L50.1469,219.139 L48.315,219.139 L48.315,206.073 L50.1469,206.073 L50.1469,208.188 M50.1469,210.049 L50.1469,214.085 C50.8101,214.231 51.4207,214.304 51.9788,214.304 C53.0885,214.304 54.0225,213.932 54.7809,213.188 C55.5392,212.443 55.9184,211.425 55.9184,210.134 C55.9184,209.196 55.7116,208.491 55.2979,208.019 C54.8843,207.547 54.4148,207.312 53.8895,207.312 C53.3183,207.312 52.6896,207.559 52.0034,208.053 C51.3173,208.547 50.6984,209.213 50.1469,210.049 " style="stroke:#323232;stroke-opacity:1;stroke-width:1;stroke-linejoin:miter;stroke-miterlimit:2;stroke-linecap:round;fill-rule:evenodd;fill:#333333;fill-opacity:1;"/>
        </g>
        <g id="Shape48">
            <desc type="0" basicInfo-basicType="0" basicInfo-roundedRectRadius="12" basicInfo-polygonSides="6" basicInfo-starPoints="5" text="" font-familyName="" font-pointSize="25" font-weight="-1" strokeStyle="0" markerStart="0" markerEnd="0" shadowEnabled="0" shadowOffsetX="0" shadowOffsetY="2" shadowBlur="4" shadowOpacity="160" transform="matrix(-0.894289,0,0,0.666404,190.9,213.89)" locked="0" mesh="" flag=""/>
            <path id="shapePath48" d="M200.401,186.985 C200.401,186.985 181.399,240.794 181.399,240.794 C181.399,240.794 195.651,197.605 195.651,197.605 C195.651,197.605 200.401,186.985 200.401,186.985 Z" style="stroke:#323232;stroke-opacity:1;stroke-width:1;stroke-linejoin:miter;stroke-miterlimit:2;stroke-linecap:round;fill-rule:evenodd;fill:#333333;fill-opacity:1;"/>
        </g>
        <g id="Shape49">
            <desc type="2" basicInfo-basicType="0" basicInfo-roundedRectRadius="12" basicInfo-polygonSides="6" basicInfo-starPoints="5" text="Signal (function)" font-familyName="Monaco" font-pointSize="23" font-weight="50" strokeStyle="0" markerStart="0" markerEnd="0" shadowEnabled="0" shadowOffsetX="0" shadowOffsetY="2" shadowBlur="4" shadowOpacity="160" transform="matrix(0.600023,0,0,0.65278,150.952,243.715)" locked="0" mesh="" flag=""/>
            <path id="shapePath49" d="M82.4074,252.612 L82.4074,251.219 C83.4856,251.776 84.4649,252.055 85.3454,252.055 C85.7138,252.055 86.0664,251.978 86.4034,251.824 C86.7403,251.67 86.9952,251.449 87.1682,251.16 C87.3411,250.872 87.4276,250.559 87.4276,250.222 C87.4276,249.826 87.3086,249.456 87.0705,249.111 C86.8324,248.767 86.3854,248.387 85.7295,247.971 L85.0422,247.539 L84.3481,247.106 C83.1262,246.319 82.5152,245.342 82.5152,244.174 C82.5152,243.319 82.7881,242.599 83.3339,242.015 C83.8798,241.431 84.7322,241.139 85.8912,241.139 C86.6369,241.139 87.358,241.256 88.0543,241.491 L88.0543,242.759 C87.2861,242.436 86.5381,242.275 85.8104,242.275 C85.2308,242.275 84.7625,242.441 84.4054,242.774 C84.0482,243.106 83.8697,243.507 83.8697,243.976 C83.8697,244.44 84.0067,244.826 84.2807,245.134 C84.5547,245.442 84.9052,245.726 85.3319,245.985 L85.8575,246.329 L86.5112,246.762 L87.0637,247.114 C88.2093,247.876 88.7821,248.834 88.7821,249.987 C88.7821,250.867 88.4878,251.622 87.8993,252.253 C87.3108,252.883 86.3674,253.198 85.0691,253.198 C84.6558,253.198 84.2616,253.16 83.8865,253.085 C83.5114,253.009 83.0184,252.851 82.4074,252.612 M92.7815,252.854 L92.7815,245.801 L90.6926,245.801 L90.6926,244.665 L94.0349,244.665 L94.0349,251.717 L96.1306,251.717 L96.1306,252.854 L92.7815,252.854 M92.5726,241.711 C92.5726,241.403 92.6692,241.173 92.8624,241.021 C93.0556,240.87 93.2375,240.794 93.4082,240.794 C93.5834,240.794 93.7676,240.87 93.9608,241.021 C94.1539,241.173 94.2505,241.403 94.2505,241.711 C94.2505,242.014 94.1539,242.241 93.9608,242.392 C93.7676,242.544 93.5834,242.62 93.4082,242.62 C93.2375,242.62 93.0556,242.544 92.8624,242.392 C92.6692,242.241 92.5726,242.014 92.5726,241.711 M103.978,251.014 C103.596,251.698 103.137,252.213 102.6,252.56 C102.063,252.907 101.57,253.081 101.121,253.081 C100.492,253.081 99.9268,252.785 99.4259,252.194 C98.925,251.603 98.6745,250.706 98.6745,249.503 C98.6745,248.555 98.8407,247.709 99.1732,246.963 C99.5056,246.218 99.9503,245.629 100.507,245.196 C101.064,244.764 101.754,244.548 102.576,244.548 C102.814,244.548 103.174,244.575 103.654,244.628 C103.726,244.638 103.834,244.65 103.978,244.665 L105.238,244.665 L105.238,250.456 C105.238,251.835 105.221,252.677 105.187,252.982 C105.154,253.287 105.099,253.597 105.022,253.909 C104.843,254.638 104.433,255.212 103.792,255.632 C103.152,256.052 102.378,256.263 101.471,256.263 C100.559,256.263 99.6359,256.009 98.7015,255.5 L98.7015,254.122 C99.0564,254.386 99.4932,254.619 100.012,254.822 C100.531,255.025 101.033,255.126 101.518,255.126 C101.9,255.126 102.262,255.06 102.603,254.928 C102.945,254.796 103.221,254.606 103.432,254.357 C103.643,254.107 103.787,253.818 103.863,253.488 C103.94,253.158 103.978,252.719 103.978,252.172 L103.978,251.014 M103.978,249.393 L103.978,245.882 C103.533,245.755 103.12,245.691 102.738,245.691 C101.965,245.691 101.322,246.016 100.807,246.666 C100.293,247.316 100.036,248.201 100.036,249.32 C100.036,250.131 100.176,250.744 100.457,251.157 C100.738,251.57 101.058,251.776 101.417,251.776 C101.808,251.776 102.239,251.561 102.711,251.131 C103.183,250.701 103.605,250.122 103.978,249.393 M107.229,252.854 L107.229,244.665 L108.483,244.665 L108.483,246.454 C108.842,245.823 109.275,245.33 109.783,244.973 C110.291,244.616 110.798,244.438 111.306,244.438 C111.751,244.438 112.155,244.566 112.519,244.823 C112.883,245.079 113.138,245.415 113.284,245.831 C113.43,246.246 113.503,247.062 113.503,248.279 L113.503,252.854 L112.249,252.854 L112.249,248.111 C112.249,247.324 112.215,246.804 112.145,246.553 C112.075,246.301 111.947,246.095 111.761,245.933 C111.574,245.772 111.371,245.691 111.151,245.691 C110.711,245.691 110.238,245.919 109.733,246.373 C109.227,246.828 108.811,247.397 108.483,248.081 L108.483,252.854 L107.229,252.854 M120.454,251.014 C120.072,251.698 119.613,252.213 119.076,252.56 C118.539,252.907 118.046,253.081 117.597,253.081 C116.968,253.081 116.403,252.785 115.902,252.194 C115.401,251.603 115.151,250.706 115.151,249.503 C115.151,248.555 115.317,247.709 115.649,246.963 C115.982,246.218 116.426,245.629 116.983,245.196 C117.54,244.764 118.23,244.548 119.052,244.548 C119.29,244.548 119.65,244.575 120.13,244.628 C120.202,244.638 120.31,244.65 120.454,244.665 L121.714,244.665 L121.714,250.449 C121.714,251.436 121.808,252.238 121.997,252.854 L120.69,252.854 C120.591,252.404 120.512,251.791 120.454,251.014 M120.454,249.393 L120.454,245.882 C120.009,245.755 119.596,245.691 119.214,245.691 C118.441,245.691 117.798,246.016 117.283,246.666 C116.769,247.316 116.512,248.201 116.512,249.32 C116.512,250.131 116.652,250.744 116.933,251.157 C117.214,251.57 117.534,251.776 117.893,251.776 C118.284,251.776 118.715,251.561 119.187,251.131 C119.659,250.701 120.081,250.122 120.454,249.393 M125.808,252.854 L125.808,242.165 L123.557,242.165 L123.557,241.021 L127.061,241.021 L127.061,251.717 L129.413,251.717 L129.413,252.854 L125.808,252.854 M146.522,255.581 C145.278,255.498 144.229,255.115 143.375,254.434 C142.522,253.752 141.84,252.832 141.33,251.673 C140.82,250.515 140.565,249.354 140.565,248.191 C140.565,247.028 140.82,245.867 141.33,244.709 C141.84,243.551 142.522,242.631 143.375,241.949 C144.229,241.267 145.278,240.882 146.522,240.794 L146.522,241.938 C145.583,242.031 144.776,242.374 144.1,242.968 C143.424,243.562 142.892,244.318 142.506,245.237 C142.12,246.156 141.927,247.14 141.927,248.191 C141.927,249.242 142.12,250.227 142.506,251.146 C142.892,252.064 143.424,252.82 144.1,253.411 C144.776,254.002 145.583,254.347 146.522,254.445 L146.522,255.581 M150.373,252.854 L150.373,246.483 L148.702,246.483 L148.702,245.347 L150.373,245.347 L150.373,244.966 C150.373,243.885 150.486,243.086 150.71,242.568 C150.935,242.05 151.282,241.625 151.751,241.293 C152.221,240.96 152.842,240.794 153.615,240.794 C154.199,240.794 154.792,240.86 155.394,240.992 L155.394,242.29 C154.742,242.055 154.165,241.938 153.662,241.938 C153.262,241.938 152.909,242.018 152.604,242.18 C152.298,242.341 152.059,242.604 151.886,242.968 C151.713,243.332 151.627,243.949 151.627,244.819 L151.627,245.347 L154.612,245.347 L154.612,246.483 L151.627,246.483 L151.627,252.854 L150.373,252.854 M163.093,244.665 L163.093,252.854 L161.839,252.854 L161.839,251.058 C161.435,251.732 160.986,252.238 160.492,252.575 C159.997,252.912 159.503,253.081 159.009,253.081 C158.569,253.081 158.166,252.953 157.799,252.696 C157.433,252.44 157.178,252.102 157.035,251.684 C156.891,251.267 156.819,250.452 156.819,249.24 L156.819,244.665 L158.072,244.665 L158.072,249.408 C158.072,250.195 158.107,250.714 158.177,250.966 C158.246,251.218 158.374,251.424 158.561,251.585 C158.747,251.747 158.948,251.827 159.164,251.827 C159.604,251.827 160.077,251.601 160.582,251.149 C161.088,250.697 161.507,250.127 161.839,249.437 L161.839,244.665 L163.093,244.665 M165.178,252.854 L165.178,244.665 L166.432,244.665 L166.432,246.454 C166.791,245.823 167.225,245.33 167.732,244.973 C168.24,244.616 168.747,244.438 169.255,244.438 C169.7,244.438 170.104,244.566 170.468,244.823 C170.832,245.079 171.087,245.415 171.233,245.831 C171.379,246.246 171.452,247.062 171.452,248.279 L171.452,252.854 L170.199,252.854 L170.199,248.111 C170.199,247.324 170.164,246.804 170.094,246.553 C170.024,246.301 169.896,246.095 169.71,245.933 C169.524,245.772 169.32,245.691 169.1,245.691 C168.66,245.691 168.187,245.919 167.682,246.373 C167.176,246.828 166.76,247.397 166.432,248.081 L166.432,252.854 L165.178,252.854 M179.791,252.619 C178.951,252.927 178.151,253.081 177.392,253.081 C176.637,253.081 175.967,252.892 175.381,252.513 C174.794,252.134 174.337,251.621 174.009,250.973 C173.681,250.326 173.517,249.589 173.517,248.763 C173.517,247.522 173.889,246.49 174.633,245.669 C175.376,244.848 176.273,244.438 177.325,244.438 C178.102,244.438 178.924,244.597 179.791,244.914 L179.791,246.226 C178.915,245.792 178.131,245.574 177.439,245.574 C176.981,245.574 176.55,245.697 176.145,245.944 C175.741,246.191 175.429,246.576 175.209,247.099 C174.989,247.622 174.879,248.159 174.879,248.712 C174.879,249.45 175.091,250.153 175.515,250.823 C175.94,251.493 176.606,251.827 177.513,251.827 C177.787,251.827 178.057,251.807 178.322,251.765 C178.587,251.724 179.077,251.571 179.791,251.307 L179.791,252.619 M188.029,252.524 C187.44,252.793 187.014,252.953 186.749,253.004 C186.484,253.055 186.228,253.081 185.98,253.081 C185.455,253.081 184.974,252.971 184.538,252.751 C184.103,252.531 183.774,252.206 183.551,251.776 C183.329,251.346 183.218,250.681 183.218,249.782 L183.218,246.483 L181.338,246.483 L181.338,245.347 L183.218,245.347 L183.218,242.048 L184.471,242.048 L184.471,245.347 L187.82,245.347 L187.82,246.483 L184.471,246.483 L184.471,249.76 C184.471,250.42 184.543,250.885 184.687,251.157 C184.83,251.428 185.022,251.627 185.263,251.754 C185.503,251.881 185.787,251.945 186.115,251.945 C186.722,251.945 187.36,251.737 188.029,251.322 L188.029,252.524 M192.123,252.854 L192.123,245.801 L190.034,245.801 L190.034,244.665 L193.376,244.665 L193.376,251.717 L195.472,251.717 L195.472,252.854 L192.123,252.854 M191.914,241.711 C191.914,241.403 192.01,241.173 192.204,241.021 C192.397,240.87 192.579,240.794 192.749,240.794 C192.925,240.794 193.109,240.87 193.302,241.021 C193.495,241.173 193.592,241.403 193.592,241.711 C193.592,242.014 193.495,242.241 193.302,242.392 C193.109,242.544 192.925,242.62 192.749,242.62 C192.579,242.62 192.397,242.544 192.204,242.392 C192.01,242.241 191.914,242.014 191.914,241.711 M201.392,253.081 C200.314,253.081 199.451,252.672 198.804,251.853 C198.157,251.034 197.834,250.002 197.834,248.756 C197.834,247.509 198.157,246.478 198.804,245.662 C199.451,244.846 200.314,244.438 201.392,244.438 C202.465,244.438 203.326,244.846 203.973,245.662 C204.62,246.478 204.943,247.509 204.943,248.756 C204.943,250.002 204.62,251.034 203.973,251.853 C203.326,252.672 202.465,253.081 201.392,253.081 M201.392,251.945 C202.061,251.945 202.593,251.661 202.989,251.094 C203.384,250.527 203.582,249.748 203.582,248.756 C203.582,247.768 203.384,246.991 202.989,246.424 C202.593,245.857 202.061,245.574 201.392,245.574 C200.718,245.574 200.183,245.857 199.788,246.424 C199.393,246.991 199.195,247.768 199.195,248.756 C199.195,249.748 199.393,250.527 199.788,251.094 C200.183,251.661 200.718,251.945 201.392,251.945 M206.57,252.854 L206.57,244.665 L207.824,244.665 L207.824,246.454 C208.183,245.823 208.617,245.33 209.124,244.973 C209.632,244.616 210.14,244.438 210.647,244.438 C211.092,244.438 211.496,244.566 211.86,244.823 C212.224,245.079 212.479,245.415 212.625,245.831 C212.771,246.246 212.844,247.062 212.844,248.279 L212.844,252.854 L211.591,252.854 L211.591,248.111 C211.591,247.324 211.556,246.804 211.486,246.553 C211.417,246.301 211.289,246.095 211.102,245.933 C210.916,245.772 210.712,245.691 210.492,245.691 C210.052,245.691 209.579,245.919 209.074,246.373 C208.568,246.828 208.152,247.397 207.824,248.081 L207.824,252.854 L206.57,252.854 M214.862,240.794 C216.107,240.882 217.156,241.267 218.009,241.949 C218.863,242.631 219.545,243.551 220.054,244.709 C220.564,245.867 220.819,247.028 220.819,248.191 C220.819,249.354 220.564,250.515 220.054,251.673 C219.545,252.832 218.863,253.752 218.009,254.434 C217.156,255.115 216.107,255.498 214.862,255.581 L214.862,254.445 C215.801,254.347 216.609,254.002 217.285,253.411 C217.961,252.82 218.493,252.064 218.882,251.146 C219.271,250.227 219.465,249.242 219.465,248.191 C219.465,247.14 219.271,246.156 218.882,245.237 C218.493,244.318 217.961,243.562 217.285,242.968 C216.609,242.374 215.801,242.031 214.862,241.938 L214.862,240.794 " style="stroke:#323232;stroke-opacity:1;stroke-width:1;stroke-linejoin:miter;stroke-miterlimit:2;stroke-linecap:round;fill-rule:evenodd;fill:#333333;fill-opacity:1;"/>
        </g>
        <g id="Shape50">
            <desc type="0" basicInfo-basicType="0" basicInfo-roundedRectRadius="12" basicInfo-polygonSides="6" basicInfo-starPoints="5" text="" font-familyName="" font-pointSize="23" font-weight="-1" strokeStyle="0" markerStart="0" markerEnd="0" shadowEnabled="0" shadowOffsetX="0" shadowOffsetY="2" shadowBlur="4" shadowOpacity="160" transform="matrix(1,0,0,1,361.892,37.1816)" locked="0" mesh="" flag=""/>
            <path id="shapePath50" d="M90.4391,24.4324 C90.4391,23.3699 603.596,24.4324 603.596,24.4324 C603.596,24.4324 602.534,5.30849 602.534,5.30849 C602.534,5.30849 633.345,37.1816 633.345,37.1816 C633.345,37.1816 603.596,69.0547 603.596,69.0547 C603.596,69.0547 603.596,47.806 603.596,47.806 C603.596,47.806 90.4391,46.7435 90.4391,46.7435 C90.4391,46.7435 90.4391,24.4324 90.4391,24.4324 Z" style="stroke:#323232;stroke-opacity:1;stroke-width:1;stroke-linejoin:miter;stroke-miterlimit:2;stroke-linecap:round;fill-rule:evenodd;fill:#cc9999;fill-opacity:1;"/>
        </g>
        <g id="Shape51">
            <desc type="2" basicInfo-basicType="0" basicInfo-roundedRectRadius="12" basicInfo-polygonSides="6" basicInfo-starPoints="5" text="Time" font-familyName="Monaco" font-pointSize="18" font-weight="50" strokeStyle="0" markerStart="0" markerEnd="0" shadowEnabled="0" shadowOffsetX="0" shadowOffsetY="2" shadowBlur="4" shadowOpacity="160" transform="matrix(1,0,0,1,330.71,34.9702)" locked="0" mesh="" flag=""/>
            <path id="shapePath51" d="M314.219,45.9702 L314.219,33.8325 L310.132,33.8325 L310.132,32.3296 L320.09,32.3296 L320.09,33.8325 L315.994,33.8325 L315.994,45.9702 L314.219,45.9702 M324.62,45.9702 L324.62,37.5151 L321.896,37.5151 L321.896,36.1528 L326.255,36.1528 L326.255,44.6079 L328.988,44.6079 L328.988,45.9702 L324.62,45.9702 M324.348,32.6108 C324.348,32.2417 324.474,31.9663 324.726,31.7846 C324.978,31.603 325.215,31.5122 325.438,31.5122 C325.666,31.5122 325.906,31.603 326.158,31.7846 C326.41,31.9663 326.536,32.2417 326.536,32.6108 C326.536,32.9741 326.41,33.2466 326.158,33.4282 C325.906,33.6098 325.666,33.7007 325.438,33.7007 C325.215,33.7007 324.978,33.6098 324.726,33.4282 C324.474,33.2466 324.348,32.9741 324.348,32.6108 M331.928,45.9702 L331.928,36.1528 L333.36,36.1528 L333.36,38.4028 C333.812,37.4477 334.232,36.7885 334.622,36.4253 C335.011,36.062 335.405,35.8803 335.804,35.8803 C336.278,35.8803 336.661,36.0664 336.951,36.4384 C337.241,36.8105 337.386,37.3393 337.386,38.0249 L337.386,38.5522 C337.579,37.9546 337.812,37.4697 338.084,37.0976 C338.357,36.7256 338.64,36.4297 338.933,36.2099 C339.226,35.9902 339.562,35.8803 339.943,35.8803 C340.365,35.8803 340.726,36.0591 341.024,36.4165 C341.323,36.7739 341.473,37.4858 341.473,38.5522 L341.473,45.9702 L340.04,45.9702 L340.04,39.2641 C340.04,38.7133 340.022,38.3369 339.987,38.1347 C339.952,37.9326 339.882,37.7788 339.776,37.6733 C339.671,37.5678 339.557,37.5151 339.434,37.5151 C339.129,37.5151 338.802,37.748 338.454,38.2138 C338.105,38.6797 337.749,39.4516 337.386,40.5298 L337.386,45.9702 L336.015,45.9702 L336.015,39.2729 C336.015,38.4057 335.93,37.896 335.76,37.7436 C335.59,37.5913 335.438,37.5151 335.303,37.5151 C335.004,37.5151 334.683,37.7758 334.34,38.2973 C333.998,38.8188 333.671,39.4868 333.36,40.3012 L333.36,45.9702 L331.928,45.9702 M351.628,45.3198 C350.321,45.9409 349.085,46.2514 347.919,46.2514 C347.034,46.2514 346.243,46.0317 345.546,45.5923 C344.849,45.1528 344.291,44.5244 343.872,43.707 C343.453,42.8896 343.243,42.0151 343.243,41.0835 C343.243,40.187 343.442,39.3257 343.841,38.4995 C344.239,37.6733 344.796,37.0302 345.511,36.5703 C346.226,36.1103 347.022,35.8803 347.901,35.8803 C349.067,35.8803 350.003,36.2964 350.709,37.1284 C351.416,37.9604 351.769,39.2436 351.769,40.978 L351.769,41.3296 L345.001,41.3296 C345.001,42.0092 345.143,42.6303 345.427,43.1928 C345.711,43.7553 346.085,44.1772 346.548,44.4585 C347.011,44.7397 347.538,44.8803 348.13,44.8803 C349.185,44.8803 350.351,44.5288 351.628,43.8257 L351.628,45.3198 M345.098,40.1079 L349.993,40.1079 L349.993,39.8706 C349.993,39.0678 349.797,38.4292 349.404,37.9546 C349.012,37.4799 348.487,37.2426 347.831,37.2426 C347.169,37.2426 346.596,37.4843 346.113,37.9677 C345.629,38.4511 345.291,39.1645 345.098,40.1079 " style="stroke:#323232;stroke-opacity:1;stroke-width:1;stroke-linejoin:miter;stroke-miterlimit:2;stroke-linecap:round;fill-rule:evenodd;fill:#333333;fill-opacity:1;"/>
        </g>
        <g id="Shape52">
            <desc type="0" basicInfo-basicType="0" basicInfo-roundedRectRadius="12" basicInfo-polygonSides="6" basicInfo-starPoints="5" text="" font-familyName="" font-pointSize="23" font-weight="-1" strokeStyle="0" markerStart="0" markerEnd="0" shadowEnabled="0" shadowOffsetX="0" shadowOffsetY="2" shadowBlur="4" shadowOpacity="160" transform="matrix(1,0,0,1,262.023,243.294)" locked="0" mesh="" flag=""/>
            <path id="shapePath52" d="M254.586,194.422 C254.586,194.422 256.711,275.168 256.711,275.168 C256.711,275.168 238.649,275.168 238.649,275.168 C238.649,275.168 268.397,292.167 268.397,292.167 C268.397,292.167 285.396,271.98 285.396,271.98 C285.396,271.98 273.71,271.98 273.71,271.98 C273.71,271.98 254.586,194.422 254.586,194.422 Z" style="stroke:#323232;stroke-opacity:1;stroke-width:1;stroke-linejoin:miter;stroke-miterlimit:2;stroke-linecap:round;fill-rule:evenodd;fill:#ff3333;fill-opacity:1;"/>
        </g>
        <g id="Shape53">
            <desc type="0" basicInfo-basicType="0" basicInfo-roundedRectRadius="12" basicInfo-polygonSides="6" basicInfo-starPoints="5" text="" font-familyName="" font-pointSize="23" font-weight="-1" strokeStyle="0" markerStart="0" markerEnd="0" shadowEnabled="0" shadowOffsetX="0" shadowOffsetY="2" shadowBlur="4" shadowOpacity="160" transform="matrix(0.932428,0.361356,-0.361356,0.932428,386.859,240.986)" locked="0" mesh="" flag=""/>
            <path id="shapePath53" d="M397.585,192.729 C397.585,192.729 370.388,268.786 370.388,268.786 C370.388,268.786 353.547,262.259 353.547,262.259 C353.547,262.259 375.143,288.859 375.143,288.859 C375.143,288.859 398.288,276.18 398.288,276.18 C398.288,276.18 387.39,271.957 387.39,271.957 C387.39,271.957 397.585,192.729 397.585,192.729 Z" style="stroke:#323232;stroke-opacity:1;stroke-width:1;stroke-linejoin:miter;stroke-miterlimit:2;stroke-linecap:round;fill-rule:evenodd;fill:#ff3333;fill-opacity:1;"/>
        </g>
        <g id="Shape54">
            <desc type="0" basicInfo-basicType="0" basicInfo-roundedRectRadius="12" basicInfo-polygonSides="6" basicInfo-starPoints="5" text="" font-familyName="" font-pointSize="23" font-weight="-1" strokeStyle="0" markerStart="0" markerEnd="0" shadowEnabled="0" shadowOffsetX="0" shadowOffsetY="2" shadowBlur="4" shadowOpacity="160" transform="matrix(0.705145,0.709064,-0.904411,0.899413,497.338,243.69)" locked="0" mesh="" flag=""/>
            <path id="shapePath54" d="M536.294,194.461 C536.294,194.461 464.765,268.591 464.765,268.591 C464.765,268.591 452.03,255.784 452.03,255.784 C452.03,255.784 457.632,292.167 457.632,292.167 C457.632,292.167 487.876,286.064 487.876,286.064 C487.876,286.064 479.635,277.777 479.635,277.777 C479.635,277.777 536.294,194.461 536.294,194.461 Z" style="stroke:#323232;stroke-opacity:1;stroke-width:1;stroke-linejoin:miter;stroke-miterlimit:2;stroke-linecap:round;fill-rule:evenodd;fill:#ff3333;fill-opacity:1;"/>
        </g>
        <g id="Shape55">
            <desc type="0" basicInfo-basicType="2" basicInfo-roundedRectRadius="12" basicInfo-polygonSides="6" basicInfo-starPoints="5" text="" font-familyName="" font-pointSize="23" font-weight="-1" strokeStyle="0" markerStart="0" markerEnd="0" shadowEnabled="0" shadowOffsetX="0" shadowOffsetY="2" shadowBlur="4" shadowOpacity="160" transform="matrix(1,0,0,1,359.236,308.634)" locked="0" mesh="" flag=""/>
            <path id="shapePath55" d="M223.775,296.729 C223.775,290.102 229.148,284.729 235.775,284.729 L482.696,284.729 C489.324,284.729 494.696,290.102 494.696,296.729 L494.696,320.539 C494.696,327.167 489.324,332.539 482.696,332.539 L235.775,332.539 C229.148,332.539 223.775,327.167 223.775,320.539 L223.775,296.729 Z" style="stroke:#323232;stroke-opacity:1;stroke-width:1;stroke-linejoin:miter;stroke-miterlimit:2;stroke-linecap:round;fill-rule:evenodd;fill:#ffcc66;fill-opacity:0.388235;"/>
        </g>
        <g id="Shape56">
            <desc type="2" basicInfo-basicType="0" basicInfo-roundedRectRadius="12" basicInfo-polygonSides="6" basicInfo-starPoints="5" text="UI" font-familyName="Monaco" font-pointSize="18" font-weight="50" strokeStyle="0" markerStart="0" markerEnd="0" shadowEnabled="0" shadowOffsetX="0" shadowOffsetY="2" shadowBlur="4" shadowOpacity="160" transform="matrix(2.1576,0,0,1.19601,360.348,307.041)" locked="0" mesh="" flag=""/>
            <path id="shapePath56" d="M341.161,303.882 L344.992,303.882 L344.992,314.594 C344.992,316.003 345.204,316.964 345.627,317.479 C346.051,317.995 346.702,318.387 347.581,318.657 C348.459,318.927 349.436,319.061 350.51,319.061 C351.648,319.061 352.663,318.916 353.554,318.625 C354.445,318.334 355.103,317.879 355.526,317.259 C355.95,316.639 356.161,315.473 356.161,313.764 L356.161,303.882 L359.689,303.882 L359.689,314.531 C359.689,316.052 359.281,317.241 358.465,318.1 C357.65,318.958 356.585,319.605 355.27,320.039 C353.955,320.474 352.299,320.691 350.302,320.691 C348.456,320.691 346.831,320.502 345.428,320.123 C344.025,319.745 342.963,319.177 342.242,318.42 C341.522,317.663 341.161,316.297 341.161,314.321 L341.161,303.882 M365.329,320.197 L365.329,318.567 L371.796,318.567 L371.796,305.522 L365.329,305.522 L365.329,303.882 L382.093,303.882 L382.093,305.522 L375.626,305.522 L375.626,318.567 L382.093,318.567 L382.093,320.197 L365.329,320.197 " style="stroke:#323232;stroke-opacity:1;stroke-width:1;stroke-linejoin:miter;stroke-miterlimit:2;stroke-linecap:round;fill-rule:evenodd;fill:#333333;fill-opacity:1;"/>
        </g>
        <g id="Shape57">
            <desc type="0" basicInfo-basicType="0" basicInfo-roundedRectRadius="12" basicInfo-polygonSides="6" basicInfo-starPoints="5" text="" font-familyName="" font-pointSize="20" font-weight="-1" strokeStyle="0" markerStart="0" markerEnd="0" shadowEnabled="0" shadowOffsetX="0" shadowOffsetY="2" shadowBlur="4" shadowOpacity="160" transform="matrix(1,0,0,1,526.624,269.008)" locked="0" mesh="" flag=""/>
            <path id="shapePath57" d="M489.463,261.438 C489.463,261.438 563.785,276.578 563.785,276.578 C563.785,276.578 489.463,261.438 489.463,261.438 Z" style="stroke:#000000;stroke-opacity:1;stroke-width:1;stroke-linejoin:miter;stroke-miterlimit:2;stroke-linecap:round;fill:none;"/>
        </g>
        <g id="Shape58">
            <desc type="2" basicInfo-basicType="0" basicInfo-roundedRectRadius="12" basicInfo-polygonSides="6" basicInfo-starPoints="5" text="View" font-familyName="" font-pointSize="18" font-weight="-1" strokeStyle="0" markerStart="0" markerEnd="0" shadowEnabled="0" shadowOffsetX="0" shadowOffsetY="2" shadowBlur="4" shadowOpacity="160" transform="matrix(1,0,0,1,583.881,279.293)" locked="0" mesh="" flag=""/>
            <path id="shapePath58" d="M567.272,274.882 L570.981,285.877 L574.646,274.882 L576.606,274.882 L571.895,287.793 L570.041,287.793 L565.339,274.882 L567.272,274.882 M577.729,278.424 L579.338,278.424 L579.338,287.793 L577.729,287.793 L577.729,278.424 M577.729,274.882 L579.338,274.882 L579.338,276.675 L577.729,276.675 L577.729,274.882 M587.576,278.639 C588.203,278.952 588.68,279.358 589.008,279.856 C589.325,280.331 589.536,280.885 589.641,281.517 C589.735,281.951 589.782,282.642 589.782,283.592 L582.882,283.592 C582.912,284.547 583.137,285.313 583.559,285.89 C583.981,286.467 584.634,286.756 585.519,286.756 C586.345,286.756 587.005,286.483 587.497,285.938 C587.778,285.622 587.977,285.256 588.094,284.84 L589.65,284.84 C589.609,285.185 589.473,285.571 589.241,285.995 C589.01,286.42 588.751,286.767 588.464,287.037 C587.983,287.506 587.388,287.822 586.679,287.986 C586.298,288.08 585.868,288.127 585.387,288.127 C584.215,288.127 583.222,287.7 582.408,286.848 C581.593,285.995 581.186,284.802 581.186,283.266 C581.186,281.755 581.596,280.527 582.417,279.584 C583.237,278.64 584.309,278.169 585.633,278.169 C586.301,278.169 586.949,278.325 587.576,278.639 M588.156,282.335 C588.091,281.649 587.942,281.101 587.708,280.691 C587.274,279.929 586.55,279.549 585.537,279.549 C584.81,279.549 584.201,279.811 583.709,280.335 C583.216,280.86 582.956,281.526 582.926,282.335 L588.156,282.335 M592.443,278.38 L594.254,285.798 L596.09,278.38 L597.866,278.38 L599.712,285.754 L601.636,278.38 L603.218,278.38 L600.485,287.793 L598.841,287.793 L596.925,280.507 L595.071,287.793 L593.427,287.793 L590.712,278.38 L592.443,278.38 " style="stroke:#323232;stroke-opacity:1;stroke-width:1;stroke-linejoin:miter;stroke-miterlimit:2;stroke-linecap:round;fill-rule:evenodd;fill:#333333;fill-opacity:1;"/>
        </g>
    </g>
</svg>
