<?xml version="1.0"?>
<svg version="1.1" xmlns="http://www.w3.org/2000/svg" xmlns:xlink="http://www.w3.org/1999/xlink" width="640" height="480">
    <desc iVinci="yes" version="2.9" gridStep="20" showGrid="no" snapToGrid="no" codePlatform="0"/>
    <g id="Layer0">
        <g id="Shape1">
            <desc type="0" basicInfo-basicType="2" basicInfo-roundedRectRadius="12" basicInfo-polygonSides="6" basicInfo-starPoints="5" text="" font-familyName="" font-pointSize="20" font-weight="-1" strokeStyle="0" markerStart="0" markerEnd="0" shadowEnabled="0" shadowOffsetX="0" shadowOffsetY="2" shadowBlur="4" shadowOpacity="160" transform="matrix(1,0,0,1,321,59)" locked="0" mesh="" flag=""/>
            <path id="shapePath1" d="M22.5,28 C22.5,21.3726 27.8726,16 34.5,16 L607.5,16 C614.127,16 619.5,21.3726 619.5,28 L619.5,90 C619.5,96.6274 614.127,102 607.5,102 L34.5,102 C27.8726,102 22.5,96.6274 22.5,90 L22.5,28 Z" style="stroke:#323232;stroke-opacity:1;stroke-width:0.5;stroke-linejoin:miter;stroke-miterlimit:2;stroke-linecap:round;fill-rule:evenodd;fill:#e6c213;fill-opacity:0.419608;"/>
        </g>
        <g id="Shape2">
            <desc type="0" basicInfo-basicType="2" basicInfo-roundedRectRadius="12" basicInfo-polygonSides="6" basicInfo-starPoints="5" text="" font-familyName="" font-pointSize="23" font-weight="-1" strokeStyle="0" markerStart="0" markerEnd="0" shadowEnabled="0" shadowOffsetX="0" shadowOffsetY="2" shadowBlur="4" shadowOpacity="160" transform="matrix(1,0,0,1,319,319.5)" locked="0" mesh="" flag=""/>
            <path id="shapePath2" d="M28.5,294 C28.5,287.373 33.8726,282 40.5,282 L597.5,282 C604.127,282 609.5,287.373 609.5,294 L609.5,345 C609.5,351.627 604.127,357 597.5,357 L40.5,357 C33.8726,357 28.5,351.627 28.5,345 L28.5,294 Z" style="stroke:#323232;stroke-opacity:1;stroke-width:1;stroke-linejoin:miter;stroke-miterlimit:2;stroke-linecap:round;fill-rule:evenodd;fill:#ffcc66;fill-opacity:0.388235;"/>
        </g>
        <g id="Shape3">
            <desc type="0" basicInfo-basicType="4" basicInfo-roundedRectRadius="12" basicInfo-polygonSides="6" basicInfo-starPoints="5" text="" font-familyName="" font-pointSize="20" font-weight="-1" strokeStyle="0" markerStart="0" markerEnd="0" shadowEnabled="0" shadowOffsetX="0" shadowOffsetY="2" shadowBlur="4" shadowOpacity="160" transform="matrix(0.803053,0,0,0.796296,333.5,387.977)" locked="0" mesh="" flag=""/>
            <path id="shapePath3" d="M346.75,387.977 C346.75,395.233 340.818,401.116 333.5,401.116 C326.182,401.116 320.25,395.233 320.25,387.977 C320.25,380.72 326.182,374.838 333.5,374.838 C340.818,374.838 346.75,380.72 346.75,387.977 Z" style="stroke:#323232;stroke-opacity:1;stroke-width:1;stroke-linejoin:miter;stroke-miterlimit:2;stroke-linecap:round;fill-rule:evenodd;fill:#ffffff;fill-opacity:1;"/>
        </g>
        <g id="Shape4">
            <desc type="0" basicInfo-basicType="2" basicInfo-roundedRectRadius="12" basicInfo-polygonSides="6" basicInfo-starPoints="5" text="" font-familyName="" font-pointSize="20" font-weight="-1" strokeStyle="0" markerStart="0" markerEnd="0" shadowEnabled="0" shadowOffsetX="0" shadowOffsetY="2" shadowBlur="4" shadowOpacity="160" transform="matrix(0.803053,0,0,0.796296,335.106,430.579)" locked="0" mesh="" flag=""/>
            <path id="shapePath4" d="M317.037,409.875 C317.037,404.598 321.352,400.319 326.674,400.319 L343.538,400.319 C348.86,400.319 353.175,404.598 353.175,409.875 L353.175,451.282 C353.175,456.56 348.86,460.838 343.538,460.838 L326.674,460.838 C321.352,460.838 317.037,456.56 317.037,451.282 L317.037,409.875 Z" style="stroke:#323232;stroke-opacity:1;stroke-width:1;stroke-linejoin:miter;stroke-miterlimit:2;stroke-linecap:round;fill-rule:evenodd;fill:#ffffff;fill-opacity:1;"/>
        </g>
        <g id="Shape5">
            <desc type="0" basicInfo-basicType="0" basicInfo-roundedRectRadius="12" basicInfo-polygonSides="6" basicInfo-starPoints="5" text="" font-familyName="" font-pointSize="20" font-weight="-1" strokeStyle="0" markerStart="0" markerEnd="0" shadowEnabled="0" shadowOffsetX="0" shadowOffsetY="2" shadowBlur="4" shadowOpacity="160" transform="matrix(0.803053,0,0,0.796296,303.787,408.839)" locked="0" mesh="" flag=""/>
            <path id="shapePath5" d="M317.84,413.06 C306.661,414.956 298.855,407.859 289.734,404.301 " style="stroke:#323232;stroke-opacity:1;stroke-width:1;stroke-linejoin:miter;stroke-miterlimit:2;stroke-linecap:round;fill-rule:evenodd;fill:#ffffff;fill-opacity:1;"/>
        </g>
        <g id="Shape6">
            <desc type="0" basicInfo-basicType="0" basicInfo-roundedRectRadius="12" basicInfo-polygonSides="6" basicInfo-starPoints="5" text="" font-familyName="" font-pointSize="20" font-weight="-1" strokeStyle="0" markerStart="0" markerEnd="0" shadowEnabled="0" shadowOffsetX="0" shadowOffsetY="2" shadowBlur="4" shadowOpacity="160" transform="matrix(0.803053,0,0,0.796296,369.637,407.905)" locked="0" mesh="" flag=""/>
            <path id="shapePath6" d="M353.576,413.856 C367.474,414.466 377.921,408.256 385.698,401.912 " style="stroke:#323232;stroke-opacity:1;stroke-width:1;stroke-linejoin:miter;stroke-miterlimit:2;stroke-linecap:round;fill-rule:evenodd;fill:#ffffff;fill-opacity:1;"/>
        </g>
        <g id="Shape7">
            <desc type="0" basicInfo-basicType="0" basicInfo-roundedRectRadius="12" basicInfo-polygonSides="6" basicInfo-starPoints="5" text="" font-familyName="" font-pointSize="20" font-weight="-1" strokeStyle="0" markerStart="0" markerEnd="0" shadowEnabled="0" shadowOffsetX="0" shadowOffsetY="2" shadowBlur="4" shadowOpacity="160" transform="matrix(0.794872,0,0,1,83.5,195)" locked="0" mesh="" flag=""/>
            <path id="shapePath7" d="M83.5,287 C83.5,287 67.6026,142 67.6026,142 C67.6026,142 52.5,143 52.5,143 C52.5,143 82.7051,103 82.7051,103 C82.7051,103 114.5,140 114.5,140 C114.5,140 100.192,140 100.192,140 C100.192,140 83.5,287 83.5,287 Z" style="stroke:#323232;stroke-opacity:1;stroke-width:1;stroke-linejoin:miter;stroke-miterlimit:2;stroke-linecap:round;fill-rule:evenodd;fill:#cc6600;fill-opacity:1;"/>
        </g>
        <g id="Shape8">
            <desc type="0" basicInfo-basicType="0" basicInfo-roundedRectRadius="12" basicInfo-polygonSides="6" basicInfo-starPoints="5" text="" font-familyName="" font-pointSize="20" font-weight="-1" strokeStyle="0" markerStart="0" markerEnd="0" shadowEnabled="0" shadowOffsetX="0" shadowOffsetY="2" shadowBlur="4" shadowOpacity="160" transform="matrix(0.794872,0,0,1,222,194)" locked="0" mesh="" flag=""/>
            <path id="shapePath8" d="M222,286 C222,286 206.103,141 206.103,141 C206.103,141 191,142 191,142 C191,142 221.205,102 221.205,102 C221.205,102 253,139 253,139 C253,139 238.692,139 238.692,139 C238.692,139 222,286 222,286 Z" style="stroke:#323232;stroke-opacity:1;stroke-width:1;stroke-linejoin:miter;stroke-miterlimit:2;stroke-linecap:round;fill-rule:evenodd;fill:#cc6600;fill-opacity:1;"/>
        </g>
        <g id="Shape9">
            <desc type="0" basicInfo-basicType="0" basicInfo-roundedRectRadius="12" basicInfo-polygonSides="6" basicInfo-starPoints="5" text="" font-familyName="" font-pointSize="20" font-weight="-1" strokeStyle="0" markerStart="0" markerEnd="0" shadowEnabled="0" shadowOffsetX="0" shadowOffsetY="2" shadowBlur="4" shadowOpacity="160" transform="matrix(0.794872,0,0,1,355.85,190)" locked="0" mesh="" flag=""/>
            <path id="shapePath9" d="M355.85,282 C355.85,282 339.953,137 339.953,137 C339.953,137 324.85,138 324.85,138 C324.85,138 355.056,98 355.056,98 C355.056,98 386.85,135 386.85,135 C386.85,135 372.543,135 372.543,135 C372.543,135 355.85,282 355.85,282 Z" style="stroke:#323232;stroke-opacity:1;stroke-width:1;stroke-linejoin:miter;stroke-miterlimit:2;stroke-linecap:round;fill-rule:evenodd;fill:#cc6600;fill-opacity:1;"/>
        </g>
        <g id="Shape10">
            <desc type="0" basicInfo-basicType="0" basicInfo-roundedRectRadius="12" basicInfo-polygonSides="6" basicInfo-starPoints="5" text="" font-familyName="" font-pointSize="20" font-weight="-1" strokeStyle="0" markerStart="0" markerEnd="0" shadowEnabled="0" shadowOffsetX="0" shadowOffsetY="2" shadowBlur="4" shadowOpacity="160" transform="matrix(0.794872,0,0,1,496.85,194)" locked="0" mesh="" flag=""/>
            <path id="shapePath10" d="M496.85,286 C496.85,286 480.953,141 480.953,141 C480.953,141 465.85,142 465.85,142 C465.85,142 496.056,102 496.056,102 C496.056,102 527.85,139 527.85,139 C527.85,139 513.543,139 513.543,139 C513.543,139 496.85,286 496.85,286 Z" style="stroke:#323232;stroke-opacity:1;stroke-width:1;stroke-linejoin:miter;stroke-miterlimit:2;stroke-linecap:round;fill-rule:evenodd;fill:#cc6600;fill-opacity:1;"/>
        </g>
        <g id="Shape11">
            <desc type="0" basicInfo-basicType="0" basicInfo-roundedRectRadius="12" basicInfo-polygonSides="6" basicInfo-starPoints="5" text="" font-familyName="" font-pointSize="20" font-weight="-1" strokeStyle="0" markerStart="0" markerEnd="0" shadowEnabled="0" shadowOffsetX="0" shadowOffsetY="2" shadowBlur="4" shadowOpacity="160" transform="matrix(0.794872,0,0,-0.980978,145.5,192.25)" locked="0" mesh="" flag=""/>
            <path id="shapePath11" d="M145.5,102 C145.5,102 129.603,244.242 129.603,244.242 C129.603,244.242 114.5,243.261 114.5,243.261 C114.5,243.261 144.705,282.5 144.705,282.5 C144.705,282.5 176.5,246.204 176.5,246.204 C176.5,246.204 162.192,246.204 162.192,246.204 C162.192,246.204 145.5,102 145.5,102 Z" style="stroke:#323232;stroke-opacity:1;stroke-width:1;stroke-linejoin:miter;stroke-miterlimit:2;stroke-linecap:round;fill-rule:evenodd;fill:#ff3333;fill-opacity:1;"/>
        </g>
        <g id="Shape12">
            <desc type="0" basicInfo-basicType="0" basicInfo-roundedRectRadius="12" basicInfo-polygonSides="6" basicInfo-starPoints="5" text="" font-familyName="" font-pointSize="20" font-weight="-1" strokeStyle="0" markerStart="0" markerEnd="0" shadowEnabled="0" shadowOffsetX="0" shadowOffsetY="2" shadowBlur="4" shadowOpacity="160" transform="matrix(0.794872,0,0,-0.980978,284,193.25)" locked="0" mesh="" flag=""/>
            <path id="shapePath12" d="M284,103 C284,103 268.103,245.242 268.103,245.242 C268.103,245.242 253,244.261 253,244.261 C253,244.261 283.205,283.5 283.205,283.5 C283.205,283.5 315,247.204 315,247.204 C315,247.204 300.692,247.204 300.692,247.204 C300.692,247.204 284,103 284,103 Z" style="stroke:#323232;stroke-opacity:1;stroke-width:1;stroke-linejoin:miter;stroke-miterlimit:2;stroke-linecap:round;fill-rule:evenodd;fill:#ff3333;fill-opacity:1;"/>
        </g>
        <g id="Shape13">
            <desc type="0" basicInfo-basicType="0" basicInfo-roundedRectRadius="12" basicInfo-polygonSides="6" basicInfo-starPoints="5" text="" font-familyName="" font-pointSize="20" font-weight="-1" strokeStyle="0" markerStart="0" markerEnd="0" shadowEnabled="0" shadowOffsetX="0" shadowOffsetY="2" shadowBlur="4" shadowOpacity="160" transform="matrix(0.794872,0,0,-0.980978,424,191.75)" locked="0" mesh="" flag=""/>
            <path id="shapePath13" d="M424,101.5 C424,101.5 408.103,243.742 408.103,243.742 C408.103,243.742 393,242.761 393,242.761 C393,242.761 423.205,282 423.205,282 C423.205,282 455,245.704 455,245.704 C455,245.704 440.692,245.704 440.692,245.704 C440.692,245.704 424,101.5 424,101.5 Z" style="stroke:#323232;stroke-opacity:1;stroke-width:1;stroke-linejoin:miter;stroke-miterlimit:2;stroke-linecap:round;fill-rule:evenodd;fill:#ff3333;fill-opacity:1;"/>
        </g>
        <g id="Shape14">
            <desc type="0" basicInfo-basicType="0" basicInfo-roundedRectRadius="12" basicInfo-polygonSides="6" basicInfo-starPoints="5" text="" font-familyName="" font-pointSize="20" font-weight="-1" strokeStyle="0" markerStart="0" markerEnd="0" shadowEnabled="0" shadowOffsetX="0" shadowOffsetY="2" shadowBlur="4" shadowOpacity="160" transform="matrix(0.794872,0,0,-0.980978,564,192.25)" locked="0" mesh="" flag=""/>
            <path id="shapePath14" d="M564,102 C564,102 548.103,244.242 548.103,244.242 C548.103,244.242 533,243.261 533,243.261 C533,243.261 563.205,282.5 563.205,282.5 C563.205,282.5 595,246.204 595,246.204 C595,246.204 580.692,246.204 580.692,246.204 C580.692,246.204 564,102 564,102 Z" style="stroke:#323232;stroke-opacity:1;stroke-width:1;stroke-linejoin:miter;stroke-miterlimit:2;stroke-linecap:round;fill-rule:evenodd;fill:#ff3333;fill-opacity:1;"/>
        </g>
        <g id="Shape15">
            <desc type="0" basicInfo-basicType="4" basicInfo-roundedRectRadius="12" basicInfo-polygonSides="6" basicInfo-starPoints="5" text="" font-familyName="" font-pointSize="20" font-weight="-1" strokeStyle="0" markerStart="0" markerEnd="0" shadowEnabled="0" shadowOffsetX="0" shadowOffsetY="2" shadowBlur="4" shadowOpacity="160" transform="matrix(1,0,0,1,74,40)" locked="0" mesh="" flag=""/>
            <path id="shapePath15" d="M83.5,40 C83.5,42.2091 79.2467,44 74,44 C68.7533,44 64.5,42.2091 64.5,40 C64.5,37.7909 68.7533,36 74,36 C79.2467,36 83.5,37.7909 83.5,40 Z" style="stroke:#323232;stroke-opacity:1;stroke-width:0.5;stroke-linejoin:miter;stroke-miterlimit:2;stroke-linecap:round;fill-rule:evenodd;fill:#e6c213;fill-opacity:0.419608;"/>
        </g>
        <g id="Shape16">
            <desc type="0" basicInfo-basicType="4" basicInfo-roundedRectRadius="12" basicInfo-polygonSides="6" basicInfo-starPoints="5" text="" font-familyName="" font-pointSize="20" font-weight="-1" strokeStyle="0" markerStart="0" markerEnd="0" shadowEnabled="0" shadowOffsetX="0" shadowOffsetY="2" shadowBlur="4" shadowOpacity="160" transform="matrix(1,0,0,1,87,52)" locked="0" mesh="" flag=""/>
            <path id="shapePath16" d="M90.5,52 C90.5,56.4183 88.933,60 87,60 C85.067,60 83.5,56.4183 83.5,52 C83.5,47.5817 85.067,44 87,44 C88.933,44 90.5,47.5817 90.5,52 Z" style="stroke:#323232;stroke-opacity:1;stroke-width:0.5;stroke-linejoin:miter;stroke-miterlimit:2;stroke-linecap:round;fill-rule:evenodd;fill:#e6c213;fill-opacity:0.419608;"/>
        </g>
        <g id="Shape17">
            <desc type="0" basicInfo-basicType="4" basicInfo-roundedRectRadius="12" basicInfo-polygonSides="6" basicInfo-starPoints="5" text="" font-familyName="" font-pointSize="20" font-weight="-1" strokeStyle="0" markerStart="0" markerEnd="0" shadowEnabled="0" shadowOffsetX="0" shadowOffsetY="2" shadowBlur="4" shadowOpacity="160" transform="matrix(1,0,0,1,94,52.5)" locked="0" mesh="" flag=""/>
            <path id="shapePath17" d="M116.5,52.5 C116.5,54.433 106.426,56 94,56 C81.5736,56 71.5,54.433 71.5,52.5 C71.5,50.567 81.5736,49 94,49 C106.426,49 116.5,50.567 116.5,52.5 Z" style="stroke:#323232;stroke-opacity:1;stroke-width:0.5;stroke-linejoin:miter;stroke-miterlimit:2;stroke-linecap:round;fill-rule:evenodd;fill:#e6c213;fill-opacity:0.419608;"/>
        </g>
        <g id="Shape18">
            <desc type="0" basicInfo-basicType="4" basicInfo-roundedRectRadius="12" basicInfo-polygonSides="6" basicInfo-starPoints="5" text="" font-familyName="" font-pointSize="20" font-weight="-1" strokeStyle="0" markerStart="0" markerEnd="0" shadowEnabled="0" shadowOffsetX="0" shadowOffsetY="2" shadowBlur="4" shadowOpacity="160" transform="matrix(1,0,0,1,103,71.5)" locked="0" mesh="" flag=""/>
            <path id="shapePath18" d="M116.5,71.5 C116.5,80.0604 110.456,87 103,87 C95.5442,87 89.5,80.0604 89.5,71.5 C89.5,62.9396 95.5442,56 103,56 C110.456,56 116.5,62.9396 116.5,71.5 Z" style="stroke:#323232;stroke-opacity:1;stroke-width:0.5;stroke-linejoin:miter;stroke-miterlimit:2;stroke-linecap:round;fill-rule:evenodd;fill:#e6c213;fill-opacity:0.419608;"/>
        </g>
        <g id="Shape19">
            <desc type="0" basicInfo-basicType="4" basicInfo-roundedRectRadius="12" basicInfo-polygonSides="6" basicInfo-starPoints="5" text="" font-familyName="" font-pointSize="20" font-weight="-1" strokeStyle="0" markerStart="0" markerEnd="0" shadowEnabled="0" shadowOffsetX="0" shadowOffsetY="2" shadowBlur="4" shadowOpacity="160" transform="matrix(1,0,0,1,104,56.5)" locked="0" mesh="" flag=""/>
            <path id="shapePath19" d="M129.5,56.5 C129.5,64.5081 118.083,71 104,71 C89.9167,71 78.5,64.5081 78.5,56.5 C78.5,48.4919 89.9167,42 104,42 C118.083,42 129.5,48.4919 129.5,56.5 Z" style="stroke:#323232;stroke-opacity:1;stroke-width:0.5;stroke-linejoin:miter;stroke-miterlimit:2;stroke-linecap:round;fill-rule:evenodd;fill:#e6c213;fill-opacity:0.419608;"/>
        </g>
        <g id="Shape20">
            <desc type="0" basicInfo-basicType="4" basicInfo-roundedRectRadius="12" basicInfo-polygonSides="6" basicInfo-starPoints="5" text="" font-familyName="" font-pointSize="20" font-weight="-1" strokeStyle="0" markerStart="0" markerEnd="0" shadowEnabled="0" shadowOffsetX="0" shadowOffsetY="2" shadowBlur="4" shadowOpacity="160" transform="matrix(1,0,0,1,149.5,79)" locked="0" mesh="" flag=""/>
            <path id="shapePath20" d="M169.5,79 C169.5,83.4183 160.546,87 149.5,87 C138.454,87 129.5,83.4183 129.5,79 C129.5,74.5817 138.454,71 149.5,71 C160.546,71 169.5,74.5817 169.5,79 Z" style="stroke:#323232;stroke-opacity:1;stroke-width:0.5;stroke-linejoin:miter;stroke-miterlimit:2;stroke-linecap:round;fill-rule:evenodd;fill:#e6c213;fill-opacity:0.419608;"/>
        </g>
        <g id="Shape21">
            <desc type="0" basicInfo-basicType="4" basicInfo-roundedRectRadius="12" basicInfo-polygonSides="6" basicInfo-starPoints="5" text="" font-familyName="" font-pointSize="20" font-weight="-1" strokeStyle="0" markerStart="0" markerEnd="0" shadowEnabled="0" shadowOffsetX="0" shadowOffsetY="2" shadowBlur="4" shadowOpacity="160" transform="matrix(1,0,0,1,134,57.5)" locked="0" mesh="" flag=""/>
            <path id="shapePath21" d="M147.5,57.5 C147.5,65.5081 141.456,72 134,72 C126.544,72 120.5,65.5081 120.5,57.5 C120.5,49.4919 126.544,43 134,43 C141.456,43 147.5,49.4919 147.5,57.5 Z" style="stroke:#323232;stroke-opacity:1;stroke-width:0.5;stroke-linejoin:miter;stroke-miterlimit:2;stroke-linecap:round;fill-rule:evenodd;fill:#e6c213;fill-opacity:0.419608;"/>
        </g>
        <g id="Shape22">
            <desc type="0" basicInfo-basicType="4" basicInfo-roundedRectRadius="12" basicInfo-polygonSides="6" basicInfo-starPoints="5" text="" font-familyName="" font-pointSize="20" font-weight="-1" strokeStyle="0" markerStart="0" markerEnd="0" shadowEnabled="0" shadowOffsetX="0" shadowOffsetY="2" shadowBlur="4" shadowOpacity="160" transform="matrix(1,0,0,1,76.5,44)" locked="0" mesh="" flag=""/>
            <path id="shapePath22" d="M83.5,44 C83.5,50.6274 80.366,56 76.5,56 C72.634,56 69.5,50.6274 69.5,44 C69.5,37.3726 72.634,32 76.5,32 C80.366,32 83.5,37.3726 83.5,44 Z" style="stroke:#323232;stroke-opacity:1;stroke-width:0.5;stroke-linejoin:miter;stroke-miterlimit:2;stroke-linecap:round;fill-rule:evenodd;fill:#e6c213;fill-opacity:0.419608;"/>
        </g>
        <g id="Shape23">
            <desc type="0" basicInfo-basicType="4" basicInfo-roundedRectRadius="12" basicInfo-polygonSides="6" basicInfo-starPoints="5" text="" font-familyName="" font-pointSize="20" font-weight="-1" strokeStyle="0" markerStart="0" markerEnd="0" shadowEnabled="0" shadowOffsetX="0" shadowOffsetY="2" shadowBlur="4" shadowOpacity="160" transform="matrix(1,0,0,1,147.5,63.5)" locked="0" mesh="" flag=""/>
            <path id="shapePath23" d="M154.5,63.5 C154.5,67.6421 151.366,71 147.5,71 C143.634,71 140.5,67.6421 140.5,63.5 C140.5,59.3579 143.634,56 147.5,56 C151.366,56 154.5,59.3579 154.5,63.5 Z" style="stroke:#323232;stroke-opacity:1;stroke-width:0.5;stroke-linejoin:miter;stroke-miterlimit:2;stroke-linecap:round;fill-rule:evenodd;fill:#e6c213;fill-opacity:0.419608;"/>
        </g>
        <g id="Shape24">
            <desc type="0" basicInfo-basicType="4" basicInfo-roundedRectRadius="12" basicInfo-polygonSides="6" basicInfo-starPoints="5" text="" font-familyName="" font-pointSize="20" font-weight="-1" strokeStyle="0" markerStart="0" markerEnd="0" shadowEnabled="0" shadowOffsetX="0" shadowOffsetY="2" shadowBlur="4" shadowOpacity="160" transform="matrix(1,0,0,1,122,39.5)" locked="0" mesh="" flag=""/>
            <path id="shapePath24" d="M134.5,39.5 C134.5,43.6421 128.904,47 122,47 C115.096,47 109.5,43.6421 109.5,39.5 C109.5,35.3579 115.096,32 122,32 C128.904,32 134.5,35.3579 134.5,39.5 Z" style="stroke:#323232;stroke-opacity:1;stroke-width:0.5;stroke-linejoin:miter;stroke-miterlimit:2;stroke-linecap:round;fill-rule:evenodd;fill:#e6c213;fill-opacity:0.419608;"/>
        </g>
        <g id="Shape25">
            <desc type="0" basicInfo-basicType="4" basicInfo-roundedRectRadius="12" basicInfo-polygonSides="6" basicInfo-starPoints="5" text="" font-familyName="" font-pointSize="20" font-weight="-1" strokeStyle="0" markerStart="0" markerEnd="0" shadowEnabled="0" shadowOffsetX="0" shadowOffsetY="2" shadowBlur="4" shadowOpacity="160" transform="matrix(1,0,0,1,146,41)" locked="0" mesh="" flag=""/>
            <path id="shapePath25" d="M154.5,41 C154.5,49.2843 150.694,56 146,56 C141.306,56 137.5,49.2843 137.5,41 C137.5,32.7157 141.306,26 146,26 C150.694,26 154.5,32.7157 154.5,41 Z" style="stroke:#323232;stroke-opacity:1;stroke-width:0.5;stroke-linejoin:miter;stroke-miterlimit:2;stroke-linecap:round;fill-rule:evenodd;fill:#e6c213;fill-opacity:0.419608;"/>
        </g>
        <g id="Shape26">
            <desc type="0" basicInfo-basicType="4" basicInfo-roundedRectRadius="12" basicInfo-polygonSides="6" basicInfo-starPoints="5" text="" font-familyName="" font-pointSize="20" font-weight="-1" strokeStyle="0" markerStart="0" markerEnd="0" shadowEnabled="0" shadowOffsetX="0" shadowOffsetY="2" shadowBlur="4" shadowOpacity="160" transform="matrix(1,0,0,1,169.5,68)" locked="0" mesh="" flag=""/>
            <path id="shapePath26" d="M183.5,68 C183.5,74.6274 177.232,80 169.5,80 C161.768,80 155.5,74.6274 155.5,68 C155.5,61.3726 161.768,56 169.5,56 C177.232,56 183.5,61.3726 183.5,68 Z" style="stroke:#323232;stroke-opacity:1;stroke-width:0.5;stroke-linejoin:miter;stroke-miterlimit:2;stroke-linecap:round;fill-rule:evenodd;fill:#e6c213;fill-opacity:0.419608;"/>
        </g>
        <g id="Shape27">
            <desc type="0" basicInfo-basicType="4" basicInfo-roundedRectRadius="12" basicInfo-polygonSides="6" basicInfo-starPoints="5" text="" font-familyName="" font-pointSize="20" font-weight="-1" strokeStyle="0" markerStart="0" markerEnd="0" shadowEnabled="0" shadowOffsetX="0" shadowOffsetY="2" shadowBlur="4" shadowOpacity="160" transform="matrix(1,0,0,1,158.5,48)" locked="0" mesh="" flag=""/>
            <path id="shapePath27" d="M168.5,48 C168.5,52.9706 164.023,57 158.5,57 C152.977,57 148.5,52.9706 148.5,48 C148.5,43.0294 152.977,39 158.5,39 C164.023,39 168.5,43.0294 168.5,48 Z" style="stroke:#323232;stroke-opacity:1;stroke-width:0.5;stroke-linejoin:miter;stroke-miterlimit:2;stroke-linecap:round;fill-rule:evenodd;fill:#e6c213;fill-opacity:0.419608;"/>
        </g>
        <g id="Shape28">
            <desc type="0" basicInfo-basicType="4" basicInfo-roundedRectRadius="12" basicInfo-polygonSides="6" basicInfo-starPoints="5" text="" font-familyName="" font-pointSize="20" font-weight="-1" strokeStyle="0" markerStart="0" markerEnd="0" shadowEnabled="0" shadowOffsetX="0" shadowOffsetY="2" shadowBlur="4" shadowOpacity="160" transform="matrix(1,0,0,1,200,60)" locked="0" mesh="" flag=""/>
            <path id="shapePath28" d="M229.5,60 C229.5,75.464 216.292,88 200,88 C183.708,88 170.5,75.464 170.5,60 C170.5,44.536 183.708,32 200,32 C216.292,32 229.5,44.536 229.5,60 Z" style="stroke:#323232;stroke-opacity:1;stroke-width:0.5;stroke-linejoin:miter;stroke-miterlimit:2;stroke-linecap:round;fill-rule:evenodd;fill:#e6c213;fill-opacity:0.419608;"/>
        </g>
        <g id="Shape29">
            <desc type="0" basicInfo-basicType="4" basicInfo-roundedRectRadius="12" basicInfo-polygonSides="6" basicInfo-starPoints="5" text="" font-familyName="" font-pointSize="20" font-weight="-1" strokeStyle="0" markerStart="0" markerEnd="0" shadowEnabled="0" shadowOffsetX="0" shadowOffsetY="2" shadowBlur="4" shadowOpacity="160" transform="matrix(1,0,0,1,226,75.5)" locked="0" mesh="" flag=""/>
            <path id="shapePath29" d="M229.5,75.5 C229.5,82.4036 227.933,88 226,88 C224.067,88 222.5,82.4036 222.5,75.5 C222.5,68.5964 224.067,63 226,63 C227.933,63 229.5,68.5964 229.5,75.5 Z" style="stroke:#323232;stroke-opacity:1;stroke-width:0.5;stroke-linejoin:miter;stroke-miterlimit:2;stroke-linecap:round;fill-rule:evenodd;fill:#e6c213;fill-opacity:0.419608;"/>
        </g>
        <g id="Shape30">
            <desc type="0" basicInfo-basicType="4" basicInfo-roundedRectRadius="12" basicInfo-polygonSides="6" basicInfo-starPoints="5" text="" font-familyName="" font-pointSize="20" font-weight="-1" strokeStyle="0" markerStart="0" markerEnd="0" shadowEnabled="0" shadowOffsetX="0" shadowOffsetY="2" shadowBlur="4" shadowOpacity="160" transform="matrix(1,0,0,1,175,54)" locked="0" mesh="" flag=""/>
            <path id="shapePath30" d="M193.5,54 C193.5,61.1797 185.217,67 175,67 C164.783,67 156.5,61.1797 156.5,54 C156.5,46.8203 164.783,41 175,41 C185.217,41 193.5,46.8203 193.5,54 Z" style="stroke:#323232;stroke-opacity:1;stroke-width:0.5;stroke-linejoin:miter;stroke-miterlimit:2;stroke-linecap:round;fill-rule:evenodd;fill:#e6c213;fill-opacity:0.419608;"/>
        </g>
        <g id="Shape31">
            <desc type="0" basicInfo-basicType="4" basicInfo-roundedRectRadius="12" basicInfo-polygonSides="6" basicInfo-starPoints="5" text="" font-familyName="" font-pointSize="20" font-weight="-1" strokeStyle="0" markerStart="0" markerEnd="0" shadowEnabled="0" shadowOffsetX="0" shadowOffsetY="2" shadowBlur="4" shadowOpacity="160" transform="matrix(1,0,0,1,240,46.5)" locked="0" mesh="" flag=""/>
            <path id="shapePath31" d="M263.5,46.5 C263.5,56.165 252.979,64 240,64 C227.021,64 216.5,56.165 216.5,46.5 C216.5,36.835 227.021,29 240,29 C252.979,29 263.5,36.835 263.5,46.5 Z" style="stroke:#323232;stroke-opacity:1;stroke-width:0.5;stroke-linejoin:miter;stroke-miterlimit:2;stroke-linecap:round;fill-rule:evenodd;fill:#e6c213;fill-opacity:0.419608;"/>
        </g>
        <g id="Shape32">
            <desc type="0" basicInfo-basicType="4" basicInfo-roundedRectRadius="12" basicInfo-polygonSides="6" basicInfo-starPoints="5" text="" font-familyName="" font-pointSize="20" font-weight="-1" strokeStyle="0" markerStart="0" markerEnd="0" shadowEnabled="0" shadowOffsetX="0" shadowOffsetY="2" shadowBlur="4" shadowOpacity="160" transform="matrix(1,0,0,1,72.5,71.5)" locked="0" mesh="" flag=""/>
            <path id="shapePath32" d="M95.5,71.5 C95.5,82.2696 85.2026,91 72.5,91 C59.7975,91 49.5,82.2696 49.5,71.5 C49.5,60.7304 59.7975,52 72.5,52 C85.2026,52 95.5,60.7304 95.5,71.5 Z" style="stroke:#323232;stroke-opacity:1;stroke-width:0.5;stroke-linejoin:miter;stroke-miterlimit:2;stroke-linecap:round;fill-rule:evenodd;fill:#e6c213;fill-opacity:0.419608;"/>
        </g>
        <g id="Shape33">
            <desc type="0" basicInfo-basicType="4" basicInfo-roundedRectRadius="12" basicInfo-polygonSides="6" basicInfo-starPoints="5" text="" font-familyName="" font-pointSize="20" font-weight="-1" strokeStyle="0" markerStart="0" markerEnd="0" shadowEnabled="0" shadowOffsetX="0" shadowOffsetY="2" shadowBlur="4" shadowOpacity="160" transform="matrix(1,0,0,1,237.5,70)" locked="0" mesh="" flag=""/>
            <path id="shapePath33" d="M248.5,70 C248.5,76.0751 243.575,81 237.5,81 C231.425,81 226.5,76.0751 226.5,70 C226.5,63.9249 231.425,59 237.5,59 C243.575,59 248.5,63.9249 248.5,70 Z" style="stroke:#323232;stroke-opacity:1;stroke-width:0.5;stroke-linejoin:miter;stroke-miterlimit:2;stroke-linecap:round;fill-rule:evenodd;fill:#e6c213;fill-opacity:0.419608;"/>
        </g>
        <g id="Shape34">
            <desc type="0" basicInfo-basicType="4" basicInfo-roundedRectRadius="12" basicInfo-polygonSides="6" basicInfo-starPoints="5" text="" font-familyName="" font-pointSize="20" font-weight="-1" strokeStyle="0" markerStart="0" markerEnd="0" shadowEnabled="0" shadowOffsetX="0" shadowOffsetY="2" shadowBlur="4" shadowOpacity="160" transform="matrix(1,0,0,1,269.5,65.5)" locked="0" mesh="" flag=""/>
            <path id="shapePath34" d="M286.5,65.5 C286.5,74.0604 278.889,81 269.5,81 C260.111,81 252.5,74.0604 252.5,65.5 C252.5,56.9396 260.111,50 269.5,50 C278.889,50 286.5,56.9396 286.5,65.5 Z" style="stroke:#323232;stroke-opacity:1;stroke-width:0.5;stroke-linejoin:miter;stroke-miterlimit:2;stroke-linecap:round;fill-rule:evenodd;fill:#e6c213;fill-opacity:0.419608;"/>
        </g>
        <g id="Shape35">
            <desc type="0" basicInfo-basicType="4" basicInfo-roundedRectRadius="12" basicInfo-polygonSides="6" basicInfo-starPoints="5" text="" font-familyName="" font-pointSize="20" font-weight="-1" strokeStyle="0" markerStart="0" markerEnd="0" shadowEnabled="0" shadowOffsetX="0" shadowOffsetY="2" shadowBlur="4" shadowOpacity="160" transform="matrix(1,0,0,1,249,75.5)" locked="0" mesh="" flag=""/>
            <path id="shapePath35" d="M256.5,75.5 C256.5,79.0899 253.142,82 249,82 C244.858,82 241.5,79.0899 241.5,75.5 C241.5,71.9101 244.858,69 249,69 C253.142,69 256.5,71.9101 256.5,75.5 Z" style="stroke:#323232;stroke-opacity:1;stroke-width:0.5;stroke-linejoin:miter;stroke-miterlimit:2;stroke-linecap:round;fill-rule:evenodd;fill:#e6c213;fill-opacity:0.419608;"/>
        </g>
        <g id="Shape36">
            <desc type="0" basicInfo-basicType="4" basicInfo-roundedRectRadius="12" basicInfo-polygonSides="6" basicInfo-starPoints="5" text="" font-familyName="" font-pointSize="20" font-weight="-1" strokeStyle="0" markerStart="0" markerEnd="0" shadowEnabled="0" shadowOffsetX="0" shadowOffsetY="2" shadowBlur="4" shadowOpacity="160" transform="matrix(1,0,0,1,289,65)" locked="0" mesh="" flag=""/>
            <path id="shapePath36" d="M298.5,65 C298.5,75.4934 294.247,84 289,84 C283.753,84 279.5,75.4934 279.5,65 C279.5,54.5066 283.753,46 289,46 C294.247,46 298.5,54.5066 298.5,65 Z" style="stroke:#323232;stroke-opacity:1;stroke-width:0.5;stroke-linejoin:miter;stroke-miterlimit:2;stroke-linecap:round;fill-rule:evenodd;fill:#e6c213;fill-opacity:0.419608;"/>
        </g>
        <g id="Shape37">
            <desc type="0" basicInfo-basicType="4" basicInfo-roundedRectRadius="12" basicInfo-polygonSides="6" basicInfo-starPoints="5" text="" font-familyName="" font-pointSize="20" font-weight="-1" strokeStyle="0" markerStart="0" markerEnd="0" shadowEnabled="0" shadowOffsetX="0" shadowOffsetY="2" shadowBlur="4" shadowOpacity="160" transform="matrix(1,0,0,1,264,38)" locked="0" mesh="" flag=""/>
            <path id="shapePath37" d="M279.5,38 C279.5,42.4183 272.56,46 264,46 C255.44,46 248.5,42.4183 248.5,38 C248.5,33.5817 255.44,30 264,30 C272.56,30 279.5,33.5817 279.5,38 Z" style="stroke:#323232;stroke-opacity:1;stroke-width:0.5;stroke-linejoin:miter;stroke-miterlimit:2;stroke-linecap:round;fill-rule:evenodd;fill:#e6c213;fill-opacity:0.419608;"/>
        </g>
        <g id="Shape38">
            <desc type="0" basicInfo-basicType="4" basicInfo-roundedRectRadius="12" basicInfo-polygonSides="6" basicInfo-starPoints="5" text="" font-familyName="" font-pointSize="20" font-weight="-1" strokeStyle="0" markerStart="0" markerEnd="0" shadowEnabled="0" shadowOffsetX="0" shadowOffsetY="2" shadowBlur="4" shadowOpacity="160" transform="matrix(1,0,0,1,301,45)" locked="0" mesh="" flag=""/>
            <path id="shapePath38" d="M326.5,45 C326.5,53.2843 315.083,60 301,60 C286.917,60 275.5,53.2843 275.5,45 C275.5,36.7157 286.917,30 301,30 C315.083,30 326.5,36.7157 326.5,45 Z" style="stroke:#323232;stroke-opacity:1;stroke-width:0.5;stroke-linejoin:miter;stroke-miterlimit:2;stroke-linecap:round;fill-rule:evenodd;fill:#e6c213;fill-opacity:0.419608;"/>
        </g>
        <g id="Shape39">
            <desc type="0" basicInfo-basicType="4" basicInfo-roundedRectRadius="12" basicInfo-polygonSides="6" basicInfo-starPoints="5" text="" font-familyName="" font-pointSize="20" font-weight="-1" strokeStyle="0" markerStart="0" markerEnd="0" shadowEnabled="0" shadowOffsetX="0" shadowOffsetY="2" shadowBlur="4" shadowOpacity="160" transform="matrix(1,0,0,1,310,69)" locked="0" mesh="" flag=""/>
            <path id="shapePath39" d="M326.5,69 C326.5,73.9706 319.113,78 310,78 C300.887,78 293.5,73.9706 293.5,69 C293.5,64.0294 300.887,60 310,60 C319.113,60 326.5,64.0294 326.5,69 Z" style="stroke:#323232;stroke-opacity:1;stroke-width:0.5;stroke-linejoin:miter;stroke-miterlimit:2;stroke-linecap:round;fill-rule:evenodd;fill:#e6c213;fill-opacity:0.419608;"/>
        </g>
        <g id="Shape40">
            <desc type="0" basicInfo-basicType="4" basicInfo-roundedRectRadius="12" basicInfo-polygonSides="6" basicInfo-starPoints="5" text="" font-familyName="" font-pointSize="20" font-weight="-1" strokeStyle="0" markerStart="0" markerEnd="0" shadowEnabled="0" shadowOffsetX="0" shadowOffsetY="2" shadowBlur="4" shadowOpacity="160" transform="matrix(1,0,0,1,332,54.5)" locked="0" mesh="" flag=""/>
            <path id="shapePath40" d="M348.5,54.5 C348.5,59.7467 341.113,64 332,64 C322.887,64 315.5,59.7467 315.5,54.5 C315.5,49.2533 322.887,45 332,45 C341.113,45 348.5,49.2533 348.5,54.5 Z" style="stroke:#323232;stroke-opacity:1;stroke-width:0.5;stroke-linejoin:miter;stroke-miterlimit:2;stroke-linecap:round;fill-rule:evenodd;fill:#e6c213;fill-opacity:0.419608;"/>
        </g>
        <g id="Shape41">
            <desc type="0" basicInfo-basicType="4" basicInfo-roundedRectRadius="12" basicInfo-polygonSides="6" basicInfo-starPoints="5" text="" font-familyName="" font-pointSize="20" font-weight="-1" strokeStyle="0" markerStart="0" markerEnd="0" shadowEnabled="0" shadowOffsetX="0" shadowOffsetY="2" shadowBlur="4" shadowOpacity="160" transform="matrix(1,0,0,1,344,55)" locked="0" mesh="" flag=""/>
            <path id="shapePath41" d="M350.5,55 C350.5,60.5228 347.59,65 344,65 C340.41,65 337.5,60.5228 337.5,55 C337.5,49.4772 340.41,45 344,45 C347.59,45 350.5,49.4772 350.5,55 Z" style="stroke:#323232;stroke-opacity:1;stroke-width:0.5;stroke-linejoin:miter;stroke-miterlimit:2;stroke-linecap:round;fill-rule:evenodd;fill:#e6c213;fill-opacity:0.419608;"/>
        </g>
        <g id="Shape42">
            <desc type="0" basicInfo-basicType="4" basicInfo-roundedRectRadius="12" basicInfo-polygonSides="6" basicInfo-starPoints="5" text="" font-familyName="" font-pointSize="20" font-weight="-1" strokeStyle="0" markerStart="0" markerEnd="0" shadowEnabled="0" shadowOffsetX="0" shadowOffsetY="2" shadowBlur="4" shadowOpacity="160" transform="matrix(1,0,0,1,333.5,70.5)" locked="0" mesh="" flag=""/>
            <path id="shapePath42" d="M340.5,70.5 C340.5,72.9853 337.366,75 333.5,75 C329.634,75 326.5,72.9853 326.5,70.5 C326.5,68.0147 329.634,66 333.5,66 C337.366,66 340.5,68.0147 340.5,70.5 Z" style="stroke:#323232;stroke-opacity:1;stroke-width:0.5;stroke-linejoin:miter;stroke-miterlimit:2;stroke-linecap:round;fill-rule:evenodd;fill:#e6c213;fill-opacity:0.419608;"/>
        </g>
        <g id="Shape43">
            <desc type="0" basicInfo-basicType="4" basicInfo-roundedRectRadius="12" basicInfo-polygonSides="6" basicInfo-starPoints="5" text="" font-familyName="" font-pointSize="20" font-weight="-1" strokeStyle="0" markerStart="0" markerEnd="0" shadowEnabled="0" shadowOffsetX="0" shadowOffsetY="2" shadowBlur="4" shadowOpacity="160" transform="matrix(1,0,0,1,331.5,66)" locked="0" mesh="" flag=""/>
            <path id="shapePath43" d="M336.5,66 C336.5,69.3137 334.261,72 331.5,72 C328.739,72 326.5,69.3137 326.5,66 C326.5,62.6863 328.739,60 331.5,60 C334.261,60 336.5,62.6863 336.5,66 Z" style="stroke:#323232;stroke-opacity:1;stroke-width:0.5;stroke-linejoin:miter;stroke-miterlimit:2;stroke-linecap:round;fill-rule:evenodd;fill:#e6c213;fill-opacity:0.419608;"/>
        </g>
        <g id="Shape44">
            <desc type="0" basicInfo-basicType="4" basicInfo-roundedRectRadius="12" basicInfo-polygonSides="6" basicInfo-starPoints="5" text="" font-familyName="" font-pointSize="20" font-weight="-1" strokeStyle="0" markerStart="0" markerEnd="0" shadowEnabled="0" shadowOffsetX="0" shadowOffsetY="2" shadowBlur="4" shadowOpacity="160" transform="matrix(1,0,0,1,358,67)" locked="0" mesh="" flag=""/>
            <path id="shapePath44" d="M371.5,67 C371.5,69.2091 365.456,71 358,71 C350.544,71 344.5,69.2091 344.5,67 C344.5,64.7909 350.544,63 358,63 C365.456,63 371.5,64.7909 371.5,67 Z" style="stroke:#323232;stroke-opacity:1;stroke-width:0.5;stroke-linejoin:miter;stroke-miterlimit:2;stroke-linecap:round;fill-rule:evenodd;fill:#e6c213;fill-opacity:0.419608;"/>
        </g>
        <g id="Shape45">
            <desc type="0" basicInfo-basicType="4" basicInfo-roundedRectRadius="12" basicInfo-polygonSides="6" basicInfo-starPoints="5" text="" font-familyName="" font-pointSize="20" font-weight="-1" strokeStyle="0" markerStart="0" markerEnd="0" shadowEnabled="0" shadowOffsetX="0" shadowOffsetY="2" shadowBlur="4" shadowOpacity="160" transform="matrix(1,0,0,1,340.5,70)" locked="0" mesh="" flag=""/>
            <path id="shapePath45" d="M344.5,70 C344.5,73.866 342.709,77 340.5,77 C338.291,77 336.5,73.866 336.5,70 C336.5,66.134 338.291,63 340.5,63 C342.709,63 344.5,66.134 344.5,70 Z" style="stroke:#323232;stroke-opacity:1;stroke-width:0.5;stroke-linejoin:miter;stroke-miterlimit:2;stroke-linecap:round;fill-rule:evenodd;fill:#e6c213;fill-opacity:0.419608;"/>
        </g>
        <g id="Shape46">
            <desc type="0" basicInfo-basicType="4" basicInfo-roundedRectRadius="12" basicInfo-polygonSides="6" basicInfo-starPoints="5" text="" font-familyName="" font-pointSize="20" font-weight="-1" strokeStyle="0" markerStart="0" markerEnd="0" shadowEnabled="0" shadowOffsetX="0" shadowOffsetY="2" shadowBlur="4" shadowOpacity="160" transform="matrix(1,0,0,1,355,40)" locked="0" mesh="" flag=""/>
            <path id="shapePath46" d="M377.5,40 C377.5,46.0751 367.426,51 355,51 C342.574,51 332.5,46.0751 332.5,40 C332.5,33.9249 342.574,29 355,29 C367.426,29 377.5,33.9249 377.5,40 Z" style="stroke:#323232;stroke-opacity:1;stroke-width:0.5;stroke-linejoin:miter;stroke-miterlimit:2;stroke-linecap:round;fill-rule:evenodd;fill:#e6c213;fill-opacity:0.419608;"/>
        </g>
        <g id="Shape47">
            <desc type="0" basicInfo-basicType="4" basicInfo-roundedRectRadius="12" basicInfo-polygonSides="6" basicInfo-starPoints="5" text="" font-familyName="" font-pointSize="20" font-weight="-1" strokeStyle="0" markerStart="0" markerEnd="0" shadowEnabled="0" shadowOffsetX="0" shadowOffsetY="2" shadowBlur="4" shadowOpacity="160" transform="matrix(1,0,0,1,368,63)" locked="0" mesh="" flag=""/>
            <path id="shapePath47" d="M377.5,63 C377.5,69.6274 373.247,75 368,75 C362.753,75 358.5,69.6274 358.5,63 C358.5,56.3726 362.753,51 368,51 C373.247,51 377.5,56.3726 377.5,63 Z" style="stroke:#323232;stroke-opacity:1;stroke-width:0.5;stroke-linejoin:miter;stroke-miterlimit:2;stroke-linecap:round;fill-rule:evenodd;fill:#e6c213;fill-opacity:0.419608;"/>
        </g>
        <g id="Shape48">
            <desc type="0" basicInfo-basicType="4" basicInfo-roundedRectRadius="12" basicInfo-polygonSides="6" basicInfo-starPoints="5" text="" font-familyName="" font-pointSize="20" font-weight="-1" strokeStyle="0" markerStart="0" markerEnd="0" shadowEnabled="0" shadowOffsetX="0" shadowOffsetY="2" shadowBlur="4" shadowOpacity="160" transform="matrix(1,0,0,1,347.5,64.5)" locked="0" mesh="" flag=""/>
            <path id="shapePath48" d="M358.5,64.5 C358.5,70.299 353.575,75 347.5,75 C341.425,75 336.5,70.299 336.5,64.5 C336.5,58.701 341.425,54 347.5,54 C353.575,54 358.5,58.701 358.5,64.5 Z" style="stroke:#323232;stroke-opacity:1;stroke-width:0.5;stroke-linejoin:miter;stroke-miterlimit:2;stroke-linecap:round;fill-rule:evenodd;fill:#e6c213;fill-opacity:0.419608;"/>
        </g>
        <g id="Shape49">
            <desc type="0" basicInfo-basicType="4" basicInfo-roundedRectRadius="12" basicInfo-polygonSides="6" basicInfo-starPoints="5" text="" font-familyName="" font-pointSize="20" font-weight="-1" strokeStyle="0" markerStart="0" markerEnd="0" shadowEnabled="0" shadowOffsetX="0" shadowOffsetY="2" shadowBlur="4" shadowOpacity="160" transform="matrix(1,0,0,1,410,46)" locked="0" mesh="" flag=""/>
            <path id="shapePath49" d="M430.5,46 C430.5,52.6274 421.322,58 410,58 C398.678,58 389.5,52.6274 389.5,46 C389.5,39.3726 398.678,34 410,34 C421.322,34 430.5,39.3726 430.5,46 Z" style="stroke:#323232;stroke-opacity:1;stroke-width:0.5;stroke-linejoin:miter;stroke-miterlimit:2;stroke-linecap:round;fill-rule:evenodd;fill:#e6c213;fill-opacity:0.419608;"/>
        </g>
        <g id="Shape50">
            <desc type="0" basicInfo-basicType="4" basicInfo-roundedRectRadius="12" basicInfo-polygonSides="6" basicInfo-starPoints="5" text="" font-familyName="" font-pointSize="20" font-weight="-1" strokeStyle="0" markerStart="0" markerEnd="0" shadowEnabled="0" shadowOffsetX="0" shadowOffsetY="2" shadowBlur="4" shadowOpacity="160" transform="matrix(1,0,0,1,389,79.5)" locked="0" mesh="" flag=""/>
            <path id="shapePath50" d="M412.5,79.5 C412.5,89.7173 401.979,98 389,98 C376.021,98 365.5,89.7173 365.5,79.5 C365.5,69.2827 376.021,61 389,61 C401.979,61 412.5,69.2827 412.5,79.5 Z" style="stroke:#323232;stroke-opacity:1;stroke-width:0.5;stroke-linejoin:miter;stroke-miterlimit:2;stroke-linecap:round;fill-rule:evenodd;fill:#e6c213;fill-opacity:0.419608;"/>
        </g>
        <g id="Shape51">
            <desc type="0" basicInfo-basicType="4" basicInfo-roundedRectRadius="12" basicInfo-polygonSides="6" basicInfo-starPoints="5" text="" font-familyName="" font-pointSize="20" font-weight="-1" strokeStyle="0" markerStart="0" markerEnd="0" shadowEnabled="0" shadowOffsetX="0" shadowOffsetY="2" shadowBlur="4" shadowOpacity="160" transform="matrix(1,0,0,1,384,52.5)" locked="0" mesh="" flag=""/>
            <path id="shapePath51" d="M402.5,52.5 C402.5,57.1944 394.217,61 384,61 C373.783,61 365.5,57.1944 365.5,52.5 C365.5,47.8056 373.783,44 384,44 C394.217,44 402.5,47.8056 402.5,52.5 Z" style="stroke:#323232;stroke-opacity:1;stroke-width:0.5;stroke-linejoin:miter;stroke-miterlimit:2;stroke-linecap:round;fill-rule:evenodd;fill:#e6c213;fill-opacity:0.419608;"/>
        </g>
        <g id="Shape52">
            <desc type="0" basicInfo-basicType="4" basicInfo-roundedRectRadius="12" basicInfo-polygonSides="6" basicInfo-starPoints="5" text="" font-familyName="" font-pointSize="20" font-weight="-1" strokeStyle="0" markerStart="0" markerEnd="0" shadowEnabled="0" shadowOffsetX="0" shadowOffsetY="2" shadowBlur="4" shadowOpacity="160" transform="matrix(1,0,0,1,417,63.5)" locked="0" mesh="" flag=""/>
            <path id="shapePath52" d="M431.5,63.5 C431.5,74.2696 425.008,83 417,83 C408.992,83 402.5,74.2696 402.5,63.5 C402.5,52.7304 408.992,44 417,44 C425.008,44 431.5,52.7304 431.5,63.5 Z" style="stroke:#323232;stroke-opacity:1;stroke-width:0.5;stroke-linejoin:miter;stroke-miterlimit:2;stroke-linecap:round;fill-rule:evenodd;fill:#e6c213;fill-opacity:0.419608;"/>
        </g>
        <g id="Shape53">
            <desc type="0" basicInfo-basicType="4" basicInfo-roundedRectRadius="12" basicInfo-polygonSides="6" basicInfo-starPoints="5" text="" font-familyName="" font-pointSize="20" font-weight="-1" strokeStyle="0" markerStart="0" markerEnd="0" shadowEnabled="0" shadowOffsetX="0" shadowOffsetY="2" shadowBlur="4" shadowOpacity="160" transform="matrix(1,0,0,1,448,68.5)" locked="0" mesh="" flag=""/>
            <path id="shapePath53" d="M464.5,68.5 C464.5,76.5081 457.113,83 448,83 C438.887,83 431.5,76.5081 431.5,68.5 C431.5,60.4919 438.887,54 448,54 C457.113,54 464.5,60.4919 464.5,68.5 Z" style="stroke:#323232;stroke-opacity:1;stroke-width:0.5;stroke-linejoin:miter;stroke-miterlimit:2;stroke-linecap:round;fill-rule:evenodd;fill:#e6c213;fill-opacity:0.419608;"/>
        </g>
        <g id="Shape54">
            <desc type="0" basicInfo-basicType="4" basicInfo-roundedRectRadius="12" basicInfo-polygonSides="6" basicInfo-starPoints="5" text="" font-familyName="" font-pointSize="20" font-weight="-1" strokeStyle="0" markerStart="0" markerEnd="0" shadowEnabled="0" shadowOffsetX="0" shadowOffsetY="2" shadowBlur="4" shadowOpacity="160" transform="matrix(1,0,0,1,443,46)" locked="0" mesh="" flag=""/>
            <path id="shapePath54" d="M464.5,46 C464.5,50.4183 454.874,54 443,54 C431.126,54 421.5,50.4183 421.5,46 C421.5,41.5817 431.126,38 443,38 C454.874,38 464.5,41.5817 464.5,46 Z" style="stroke:#323232;stroke-opacity:1;stroke-width:0.5;stroke-linejoin:miter;stroke-miterlimit:2;stroke-linecap:round;fill-rule:evenodd;fill:#e6c213;fill-opacity:0.419608;"/>
        </g>
        <g id="Shape55">
            <desc type="0" basicInfo-basicType="4" basicInfo-roundedRectRadius="12" basicInfo-polygonSides="6" basicInfo-starPoints="5" text="" font-familyName="" font-pointSize="20" font-weight="-1" strokeStyle="0" markerStart="0" markerEnd="0" shadowEnabled="0" shadowOffsetX="0" shadowOffsetY="2" shadowBlur="4" shadowOpacity="160" transform="matrix(1,0,0,1,430,51)" locked="0" mesh="" flag=""/>
            <path id="shapePath55" d="M438.5,51 C438.5,58.1797 434.694,64 430,64 C425.306,64 421.5,58.1797 421.5,51 C421.5,43.8203 425.306,38 430,38 C434.694,38 438.5,43.8203 438.5,51 Z" style="stroke:#323232;stroke-opacity:1;stroke-width:0.5;stroke-linejoin:miter;stroke-miterlimit:2;stroke-linecap:round;fill-rule:evenodd;fill:#e6c213;fill-opacity:0.419608;"/>
        </g>
        <g id="Shape56">
            <desc type="0" basicInfo-basicType="4" basicInfo-roundedRectRadius="12" basicInfo-polygonSides="6" basicInfo-starPoints="5" text="" font-familyName="" font-pointSize="20" font-weight="-1" strokeStyle="0" markerStart="0" markerEnd="0" shadowEnabled="0" shadowOffsetX="0" shadowOffsetY="2" shadowBlur="4" shadowOpacity="160" transform="matrix(1,0,0,1,482,60.5)" locked="0" mesh="" flag=""/>
            <path id="shapePath56" d="M504.5,60.5 C504.5,71.8218 494.426,81 482,81 C469.574,81 459.5,71.8218 459.5,60.5 C459.5,49.1782 469.574,40 482,40 C494.426,40 504.5,49.1782 504.5,60.5 Z" style="stroke:#323232;stroke-opacity:1;stroke-width:0.5;stroke-linejoin:miter;stroke-miterlimit:2;stroke-linecap:round;fill-rule:evenodd;fill:#e6c213;fill-opacity:0.419608;"/>
        </g>
        <g id="Shape57">
            <desc type="0" basicInfo-basicType="4" basicInfo-roundedRectRadius="12" basicInfo-polygonSides="6" basicInfo-starPoints="5" text="" font-familyName="" font-pointSize="20" font-weight="-1" strokeStyle="0" markerStart="0" markerEnd="0" shadowEnabled="0" shadowOffsetX="0" shadowOffsetY="2" shadowBlur="4" shadowOpacity="160" transform="matrix(1,0,0,1,458.5,54)" locked="0" mesh="" flag=""/>
            <path id="shapePath57" d="M459.5,54 C459.5,61.1797 459.052,67 458.5,67 C457.948,67 457.5,61.1797 457.5,54 C457.5,46.8203 457.948,41 458.5,41 C459.052,41 459.5,46.8203 459.5,54 Z" style="stroke:#323232;stroke-opacity:1;stroke-width:0.5;stroke-linejoin:miter;stroke-miterlimit:2;stroke-linecap:round;fill-rule:evenodd;fill:#e6c213;fill-opacity:0.419608;"/>
        </g>
        <g id="Shape58">
            <desc type="0" basicInfo-basicType="4" basicInfo-roundedRectRadius="12" basicInfo-polygonSides="6" basicInfo-starPoints="5" text="" font-familyName="" font-pointSize="20" font-weight="-1" strokeStyle="0" markerStart="0" markerEnd="0" shadowEnabled="0" shadowOffsetX="0" shadowOffsetY="2" shadowBlur="4" shadowOpacity="160" transform="matrix(1,0,0,1,466,76.5)" locked="0" mesh="" flag=""/>
            <path id="shapePath58" d="M484.5,76.5 C484.5,82.299 476.217,87 466,87 C455.783,87 447.5,82.299 447.5,76.5 C447.5,70.701 455.783,66 466,66 C476.217,66 484.5,70.701 484.5,76.5 Z" style="stroke:#323232;stroke-opacity:1;stroke-width:0.5;stroke-linejoin:miter;stroke-miterlimit:2;stroke-linecap:round;fill-rule:evenodd;fill:#e6c213;fill-opacity:0.419608;"/>
        </g>
        <g id="Shape59">
            <desc type="0" basicInfo-basicType="4" basicInfo-roundedRectRadius="12" basicInfo-polygonSides="6" basicInfo-starPoints="5" text="" font-familyName="" font-pointSize="20" font-weight="-1" strokeStyle="0" markerStart="0" markerEnd="0" shadowEnabled="0" shadowOffsetX="0" shadowOffsetY="2" shadowBlur="4" shadowOpacity="160" transform="matrix(1,0,0,1,514,66.5)" locked="0" mesh="" flag=""/>
            <path id="shapePath59" d="M522.5,66.5 C522.5,73.9558 518.694,80 514,80 C509.306,80 505.5,73.9558 505.5,66.5 C505.5,59.0442 509.306,53 514,53 C518.694,53 522.5,59.0442 522.5,66.5 Z" style="stroke:#323232;stroke-opacity:1;stroke-width:0.5;stroke-linejoin:miter;stroke-miterlimit:2;stroke-linecap:round;fill-rule:evenodd;fill:#e6c213;fill-opacity:0.419608;"/>
        </g>
        <g id="Shape60">
            <desc type="0" basicInfo-basicType="4" basicInfo-roundedRectRadius="12" basicInfo-polygonSides="6" basicInfo-starPoints="5" text="" font-familyName="" font-pointSize="20" font-weight="-1" strokeStyle="0" markerStart="0" markerEnd="0" shadowEnabled="0" shadowOffsetX="0" shadowOffsetY="2" shadowBlur="4" shadowOpacity="160" transform="matrix(1,0,0,1,507,72)" locked="0" mesh="" flag=""/>
            <path id="shapePath60" d="M512.5,72 C512.5,73.6569 510.038,75 507,75 C503.962,75 501.5,73.6569 501.5,72 C501.5,70.3431 503.962,69 507,69 C510.038,69 512.5,70.3431 512.5,72 Z" style="stroke:#323232;stroke-opacity:1;stroke-width:0.5;stroke-linejoin:miter;stroke-miterlimit:2;stroke-linecap:round;fill-rule:evenodd;fill:#e6c213;fill-opacity:0.419608;"/>
        </g>
        <g id="Shape61">
            <desc type="0" basicInfo-basicType="4" basicInfo-roundedRectRadius="12" basicInfo-polygonSides="6" basicInfo-starPoints="5" text="" font-familyName="" font-pointSize="20" font-weight="-1" strokeStyle="0" markerStart="0" markerEnd="0" shadowEnabled="0" shadowOffsetX="0" shadowOffsetY="2" shadowBlur="4" shadowOpacity="160" transform="matrix(1,0,0,1,504.5,69)" locked="0" mesh="" flag=""/>
            <path id="shapePath61" d="M512.5,69 C512.5,72.3137 508.918,75 504.5,75 C500.082,75 496.5,72.3137 496.5,69 C496.5,65.6863 500.082,63 504.5,63 C508.918,63 512.5,65.6863 512.5,69 Z" style="stroke:#323232;stroke-opacity:1;stroke-width:0.5;stroke-linejoin:miter;stroke-miterlimit:2;stroke-linecap:round;fill-rule:evenodd;fill:#e6c213;fill-opacity:0.419608;"/>
        </g>
        <g id="Shape62">
            <desc type="0" basicInfo-basicType="4" basicInfo-roundedRectRadius="12" basicInfo-polygonSides="6" basicInfo-starPoints="5" text="" font-familyName="" font-pointSize="20" font-weight="-1" strokeStyle="0" markerStart="0" markerEnd="0" shadowEnabled="0" shadowOffsetX="0" shadowOffsetY="2" shadowBlur="4" shadowOpacity="160" transform="matrix(1,0,0,1,503.5,44.5)" locked="0" mesh="" flag=""/>
            <path id="shapePath62" d="M507.5,44.5 C507.5,52.5081 505.709,59 503.5,59 C501.291,59 499.5,52.5081 499.5,44.5 C499.5,36.4919 501.291,30 503.5,30 C505.709,30 507.5,36.4919 507.5,44.5 Z" style="stroke:#323232;stroke-opacity:1;stroke-width:0.5;stroke-linejoin:miter;stroke-miterlimit:2;stroke-linecap:round;fill-rule:evenodd;fill:#e6c213;fill-opacity:0.419608;"/>
        </g>
        <g id="Shape63">
            <desc type="0" basicInfo-basicType="4" basicInfo-roundedRectRadius="12" basicInfo-polygonSides="6" basicInfo-starPoints="5" text="" font-familyName="" font-pointSize="20" font-weight="-1" strokeStyle="0" markerStart="0" markerEnd="0" shadowEnabled="0" shadowOffsetX="0" shadowOffsetY="2" shadowBlur="4" shadowOpacity="160" transform="matrix(1,0,0,1,508.5,36.5)" locked="0" mesh="" flag=""/>
            <path id="shapePath63" d="M517.5,36.5 C517.5,40.0899 513.471,43 508.5,43 C503.529,43 499.5,40.0899 499.5,36.5 C499.5,32.9101 503.529,30 508.5,30 C513.471,30 517.5,32.9101 517.5,36.5 Z" style="stroke:#323232;stroke-opacity:1;stroke-width:0.5;stroke-linejoin:miter;stroke-miterlimit:2;stroke-linecap:round;fill-rule:evenodd;fill:#e6c213;fill-opacity:0.419608;"/>
        </g>
        <g id="Shape64">
            <desc type="0" basicInfo-basicType="4" basicInfo-roundedRectRadius="12" basicInfo-polygonSides="6" basicInfo-starPoints="5" text="" font-familyName="" font-pointSize="20" font-weight="-1" strokeStyle="0" markerStart="0" markerEnd="0" shadowEnabled="0" shadowOffsetX="0" shadowOffsetY="2" shadowBlur="4" shadowOpacity="160" transform="matrix(1,0,0,1,487,38.5)" locked="0" mesh="" flag=""/>
            <path id="shapePath64" d="M500.5,38.5 C500.5,40.9853 494.456,43 487,43 C479.544,43 473.5,40.9853 473.5,38.5 C473.5,36.0147 479.544,34 487,34 C494.456,34 500.5,36.0147 500.5,38.5 Z" style="stroke:#323232;stroke-opacity:1;stroke-width:0.5;stroke-linejoin:miter;stroke-miterlimit:2;stroke-linecap:round;fill-rule:evenodd;fill:#e6c213;fill-opacity:0.419608;"/>
        </g>
        <g id="Shape65">
            <desc type="0" basicInfo-basicType="4" basicInfo-roundedRectRadius="12" basicInfo-polygonSides="6" basicInfo-starPoints="5" text="" font-familyName="" font-pointSize="20" font-weight="-1" strokeStyle="0" markerStart="0" markerEnd="0" shadowEnabled="0" shadowOffsetX="0" shadowOffsetY="2" shadowBlur="4" shadowOpacity="160" transform="matrix(1,0,0,1,529.5,58.5)" locked="0" mesh="" flag=""/>
            <path id="shapePath65" d="M544.5,58.5 C544.5,66.5081 537.784,73 529.5,73 C521.216,73 514.5,66.5081 514.5,58.5 C514.5,50.4919 521.216,44 529.5,44 C537.784,44 544.5,50.4919 544.5,58.5 Z" style="stroke:#323232;stroke-opacity:1;stroke-width:0.5;stroke-linejoin:miter;stroke-miterlimit:2;stroke-linecap:round;fill-rule:evenodd;fill:#e6c213;fill-opacity:0.419608;"/>
        </g>
        <g id="Shape66">
            <desc type="0" basicInfo-basicType="4" basicInfo-roundedRectRadius="12" basicInfo-polygonSides="6" basicInfo-starPoints="5" text="" font-familyName="" font-pointSize="20" font-weight="-1" strokeStyle="0" markerStart="0" markerEnd="0" shadowEnabled="0" shadowOffsetX="0" shadowOffsetY="2" shadowBlur="4" shadowOpacity="160" transform="matrix(1,0,0,1,516,50.5)" locked="0" mesh="" flag=""/>
            <path id="shapePath66" d="M523.5,50.5 C523.5,55.7467 520.142,60 516,60 C511.858,60 508.5,55.7467 508.5,50.5 C508.5,45.2533 511.858,41 516,41 C520.142,41 523.5,45.2533 523.5,50.5 Z" style="stroke:#323232;stroke-opacity:1;stroke-width:0.5;stroke-linejoin:miter;stroke-miterlimit:2;stroke-linecap:round;fill-rule:evenodd;fill:#e6c213;fill-opacity:0.419608;"/>
        </g>
        <g id="Shape67">
            <desc type="0" basicInfo-basicType="4" basicInfo-roundedRectRadius="12" basicInfo-polygonSides="6" basicInfo-starPoints="5" text="" font-familyName="" font-pointSize="20" font-weight="-1" strokeStyle="0" markerStart="0" markerEnd="0" shadowEnabled="0" shadowOffsetX="0" shadowOffsetY="2" shadowBlur="4" shadowOpacity="160" transform="matrix(1,0,0,1,558,66)" locked="0" mesh="" flag=""/>
            <path id="shapePath67" d="M581.5,66 C581.5,82.0163 570.979,95 558,95 C545.021,95 534.5,82.0163 534.5,66 C534.5,49.9837 545.021,37 558,37 C570.979,37 581.5,49.9837 581.5,66 Z" style="stroke:#323232;stroke-opacity:1;stroke-width:0.5;stroke-linejoin:miter;stroke-miterlimit:2;stroke-linecap:round;fill-rule:evenodd;fill:#e6c213;fill-opacity:0.419608;"/>
        </g>
        <g id="Shape68">
            <desc type="0" basicInfo-basicType="4" basicInfo-roundedRectRadius="12" basicInfo-polygonSides="6" basicInfo-starPoints="5" text="" font-familyName="" font-pointSize="20" font-weight="-1" strokeStyle="0" markerStart="0" markerEnd="0" shadowEnabled="0" shadowOffsetX="0" shadowOffsetY="2" shadowBlur="4" shadowOpacity="160" transform="matrix(1,0,0,1,531.5,76.5)" locked="0" mesh="" flag=""/>
            <path id="shapePath68" d="M550.5,76.5 C550.5,78.9853 541.993,81 531.5,81 C521.007,81 512.5,78.9853 512.5,76.5 C512.5,74.0147 521.007,72 531.5,72 C541.993,72 550.5,74.0147 550.5,76.5 Z" style="stroke:#323232;stroke-opacity:1;stroke-width:0.5;stroke-linejoin:miter;stroke-miterlimit:2;stroke-linecap:round;fill-rule:evenodd;fill:#e6c213;fill-opacity:0.419608;"/>
        </g>
        <g id="Shape69">
            <desc type="0" basicInfo-basicType="4" basicInfo-roundedRectRadius="12" basicInfo-polygonSides="6" basicInfo-starPoints="5" text="" font-familyName="" font-pointSize="20" font-weight="-1" strokeStyle="0" markerStart="0" markerEnd="0" shadowEnabled="0" shadowOffsetX="0" shadowOffsetY="2" shadowBlur="4" shadowOpacity="160" transform="matrix(1,0,0,1,541.5,32.5)" locked="0" mesh="" flag=""/>
            <path id="shapePath69" d="M546.5,32.5 C546.5,36.6421 544.261,40 541.5,40 C538.739,40 536.5,36.6421 536.5,32.5 C536.5,28.3579 538.739,25 541.5,25 C544.261,25 546.5,28.3579 546.5,32.5 Z" style="stroke:#323232;stroke-opacity:1;stroke-width:0.5;stroke-linejoin:miter;stroke-miterlimit:2;stroke-linecap:round;fill-rule:evenodd;fill:#e6c213;fill-opacity:0.419608;"/>
        </g>
        <g id="Shape70">
            <desc type="0" basicInfo-basicType="4" basicInfo-roundedRectRadius="12" basicInfo-polygonSides="6" basicInfo-starPoints="5" text="" font-familyName="" font-pointSize="20" font-weight="-1" strokeStyle="0" markerStart="0" markerEnd="0" shadowEnabled="0" shadowOffsetX="0" shadowOffsetY="2" shadowBlur="4" shadowOpacity="160" transform="matrix(1,0,0,1,529,30)" locked="0" mesh="" flag=""/>
            <path id="shapePath70" d="M536.5,30 C536.5,32.7614 533.142,35 529,35 C524.858,35 521.5,32.7614 521.5,30 C521.5,27.2386 524.858,25 529,25 C533.142,25 536.5,27.2386 536.5,30 Z" style="stroke:#323232;stroke-opacity:1;stroke-width:0.5;stroke-linejoin:miter;stroke-miterlimit:2;stroke-linecap:round;fill-rule:evenodd;fill:#e6c213;fill-opacity:0.419608;"/>
        </g>
        <g id="Shape71">
            <desc type="0" basicInfo-basicType="4" basicInfo-roundedRectRadius="12" basicInfo-polygonSides="6" basicInfo-starPoints="5" text="" font-familyName="" font-pointSize="20" font-weight="-1" strokeStyle="0" markerStart="0" markerEnd="0" shadowEnabled="0" shadowOffsetX="0" shadowOffsetY="2" shadowBlur="4" shadowOpacity="160" transform="matrix(1,0,0,1,533.5,46)" locked="0" mesh="" flag=""/>
            <path id="shapePath71" d="M544.5,46 C544.5,52.0751 539.575,57 533.5,57 C527.425,57 522.5,52.0751 522.5,46 C522.5,39.9249 527.425,35 533.5,35 C539.575,35 544.5,39.9249 544.5,46 Z" style="stroke:#323232;stroke-opacity:1;stroke-width:0.5;stroke-linejoin:miter;stroke-miterlimit:2;stroke-linecap:round;fill-rule:evenodd;fill:#e6c213;fill-opacity:0.419608;"/>
        </g>
        <g id="Shape72">
            <desc type="0" basicInfo-basicType="4" basicInfo-roundedRectRadius="12" basicInfo-polygonSides="6" basicInfo-starPoints="5" text="" font-familyName="" font-pointSize="20" font-weight="-1" strokeStyle="0" markerStart="0" markerEnd="0" shadowEnabled="0" shadowOffsetX="0" shadowOffsetY="2" shadowBlur="4" shadowOpacity="160" transform="matrix(1,0,0,1,558.5,39.5)" locked="0" mesh="" flag=""/>
            <path id="shapePath72" d="M567.5,39.5 C567.5,44.7467 563.471,49 558.5,49 C553.529,49 549.5,44.7467 549.5,39.5 C549.5,34.2533 553.529,30 558.5,30 C563.471,30 567.5,34.2533 567.5,39.5 Z" style="stroke:#323232;stroke-opacity:1;stroke-width:0.5;stroke-linejoin:miter;stroke-miterlimit:2;stroke-linecap:round;fill-rule:evenodd;fill:#e6c213;fill-opacity:0.419608;"/>
        </g>
        <g id="Shape73">
            <desc type="0" basicInfo-basicType="4" basicInfo-roundedRectRadius="12" basicInfo-polygonSides="6" basicInfo-starPoints="5" text="" font-familyName="" font-pointSize="20" font-weight="-1" strokeStyle="0" markerStart="0" markerEnd="0" shadowEnabled="0" shadowOffsetX="0" shadowOffsetY="2" shadowBlur="4" shadowOpacity="160" transform="matrix(1,0,0,1,270,47)" locked="0" mesh="" flag=""/>
            <path id="shapePath73" d="M276.5,47 C276.5,49.7614 273.59,52 270,52 C266.41,52 263.5,49.7614 263.5,47 C263.5,44.2386 266.41,42 270,42 C273.59,42 276.5,44.2386 276.5,47 Z" style="stroke:#323232;stroke-opacity:1;stroke-width:0.5;stroke-linejoin:miter;stroke-miterlimit:2;stroke-linecap:round;fill-rule:evenodd;fill:#e6c213;fill-opacity:0.419608;"/>
        </g>
        <g id="Shape74">
            <desc type="0" basicInfo-basicType="4" basicInfo-roundedRectRadius="12" basicInfo-polygonSides="6" basicInfo-starPoints="5" text="" font-familyName="" font-pointSize="20" font-weight="-1" strokeStyle="0" markerStart="0" markerEnd="0" shadowEnabled="0" shadowOffsetX="0" shadowOffsetY="2" shadowBlur="4" shadowOpacity="160" transform="matrix(1,0,0,1,247,63.5)" locked="0" mesh="" flag=""/>
            <path id="shapePath74" d="M256.5,63.5 C256.5,65.9853 252.247,68 247,68 C241.753,68 237.5,65.9853 237.5,63.5 C237.5,61.0147 241.753,59 247,59 C252.247,59 256.5,61.0147 256.5,63.5 Z" style="stroke:#323232;stroke-opacity:1;stroke-width:0.5;stroke-linejoin:miter;stroke-miterlimit:2;stroke-linecap:round;fill-rule:evenodd;fill:#e6c213;fill-opacity:0.419608;"/>
        </g>
        <g id="Shape75">
            <desc type="0" basicInfo-basicType="4" basicInfo-roundedRectRadius="12" basicInfo-polygonSides="6" basicInfo-starPoints="5" text="" font-familyName="" font-pointSize="20" font-weight="-1" strokeStyle="0" markerStart="0" markerEnd="0" shadowEnabled="0" shadowOffsetX="0" shadowOffsetY="2" shadowBlur="4" shadowOpacity="160" transform="matrix(1,0,0,1,360.5,41.5)" locked="0" mesh="" flag=""/>
            <path id="shapePath75" d="M373.5,41.5 C373.5,52.8218 367.68,62 360.5,62 C353.32,62 347.5,52.8218 347.5,41.5 C347.5,30.1782 353.32,21 360.5,21 C367.68,21 373.5,30.1782 373.5,41.5 Z" style="stroke:#323232;stroke-opacity:1;stroke-width:0.5;stroke-linejoin:miter;stroke-miterlimit:2;stroke-linecap:round;fill-rule:evenodd;fill:#e6c213;fill-opacity:0.419608;"/>
        </g>
        <g id="Shape76">
            <desc type="0" basicInfo-basicType="4" basicInfo-roundedRectRadius="12" basicInfo-polygonSides="6" basicInfo-starPoints="5" text="" font-familyName="" font-pointSize="20" font-weight="-1" strokeStyle="0" markerStart="0" markerEnd="0" shadowEnabled="0" shadowOffsetX="0" shadowOffsetY="2" shadowBlur="4" shadowOpacity="160" transform="matrix(1,0,0,1,153.5,58)" locked="0" mesh="" flag=""/>
            <path id="shapePath76" d="M159.5,58 C159.5,64.0751 156.814,69 153.5,69 C150.186,69 147.5,64.0751 147.5,58 C147.5,51.9249 150.186,47 153.5,47 C156.814,47 159.5,51.9249 159.5,58 Z" style="stroke:#323232;stroke-opacity:1;stroke-width:0.5;stroke-linejoin:miter;stroke-miterlimit:2;stroke-linecap:round;fill-rule:evenodd;fill:#e6c213;fill-opacity:0.419608;"/>
        </g>
        <g id="Shape77">
            <desc type="0" basicInfo-basicType="4" basicInfo-roundedRectRadius="12" basicInfo-polygonSides="6" basicInfo-starPoints="5" text="" font-familyName="" font-pointSize="20" font-weight="-1" strokeStyle="0" markerStart="0" markerEnd="0" shadowEnabled="0" shadowOffsetX="0" shadowOffsetY="2" shadowBlur="4" shadowOpacity="160" transform="matrix(1,0,0,1,122.5,73)" locked="0" mesh="" flag=""/>
            <path id="shapePath77" d="M129.5,73 C129.5,76.866 126.366,80 122.5,80 C118.634,80 115.5,76.866 115.5,73 C115.5,69.134 118.634,66 122.5,66 C126.366,66 129.5,69.134 129.5,73 Z" style="stroke:#323232;stroke-opacity:1;stroke-width:0.5;stroke-linejoin:miter;stroke-miterlimit:2;stroke-linecap:round;fill-rule:evenodd;fill:#e6c213;fill-opacity:0.419608;"/>
        </g>
        <g id="Shape78">
            <desc type="2" basicInfo-basicType="0" basicInfo-roundedRectRadius="12" basicInfo-polygonSides="6" basicInfo-starPoints="5" text="UI" font-familyName="Monaco" font-pointSize="35" font-weight="50" strokeStyle="0" markerStart="0" markerEnd="0" shadowEnabled="0" shadowOffsetX="0" shadowOffsetY="2" shadowBlur="4" shadowOpacity="160" transform="matrix(1.01922,0,0,0.674419,324.125,313.5)" locked="0" mesh="" flag=""/>
            <path id="shapePath78" d="M306.445,310.112 L309.964,310.112 L309.964,321.857 C309.964,323.401 310.158,324.456 310.547,325.021 C310.936,325.585 311.534,326.016 312.341,326.311 C313.148,326.607 314.045,326.755 315.032,326.755 C316.077,326.755 317.009,326.596 317.828,326.277 C318.647,325.958 319.25,325.459 319.639,324.779 C320.028,324.099 320.223,322.821 320.223,320.946 L320.223,310.112 L323.463,310.112 L323.463,321.788 C323.463,323.455 323.088,324.759 322.339,325.701 C321.59,326.642 320.612,327.351 319.404,327.827 C318.197,328.303 316.675,328.542 314.841,328.542 C313.145,328.542 311.653,328.334 310.364,327.919 C309.075,327.504 308.1,326.882 307.438,326.052 C306.776,325.222 306.445,323.724 306.445,321.557 L306.445,310.112 M328.65,328 L328.65,326.214 L334.59,326.214 L334.59,311.91 L328.65,311.91 L328.65,310.112 L344.048,310.112 L344.048,311.91 L338.108,311.91 L338.108,326.214 L344.048,326.214 L344.048,328 L328.65,328 " style="stroke:#323232;stroke-opacity:1;stroke-width:1;stroke-linejoin:miter;stroke-miterlimit:2;stroke-linecap:round;fill-rule:evenodd;fill:#333333;fill-opacity:1;"/>
        </g>
        <g id="Shape79">
            <desc type="2" basicInfo-basicType="0" basicInfo-roundedRectRadius="12" basicInfo-polygonSides="6" basicInfo-starPoints="5" text="Model (Mutable State)" font-familyName="Monaco" font-pointSize="40" font-weight="50" strokeStyle="0" markerStart="0" markerEnd="0" shadowEnabled="0" shadowOffsetX="0" shadowOffsetY="2" shadowBlur="4" shadowOpacity="160" transform="matrix(0.871652,0,0,0.785714,335.879,58.0413)" locked="0" mesh="" flag=""/>
            <path id="shapePath79" d="M121.694,77.2913 L118.919,77.2913 L118.919,53.4743 L122.375,53.4743 L128.47,69.1579 L134.564,53.4743 L137.935,53.4743 L137.935,77.2913 L134.769,77.2913 L134.769,62.1141 L134.854,60.0271 L134.769,60.0271 L134.02,62.1141 L129.934,72.534 L126.495,72.534 L122.358,62.1141 L121.694,60.0271 L121.609,60.0271 L121.694,62.1141 L121.694,77.2913 M149.355,77.767 C146.631,77.767 144.452,76.9102 142.818,75.1966 C141.184,73.4829 140.366,71.3217 140.366,68.7129 C140.366,66.1041 141.184,63.9454 142.818,62.2369 C144.452,60.5284 146.631,59.6741 149.355,59.6741 C152.068,59.6741 154.241,60.5284 155.876,62.2369 C157.51,63.9454 158.327,66.1041 158.327,68.7129 C158.327,71.3217 157.51,73.4829 155.876,75.1966 C154.241,76.9102 152.068,77.767 149.355,77.767 M149.355,75.3884 C151.046,75.3884 152.391,74.795 153.39,73.6083 C154.389,72.4215 154.888,70.7897 154.888,68.7129 C154.888,66.6463 154.389,65.0196 153.39,63.8329 C152.391,62.6461 151.046,62.0527 149.355,62.0527 C147.653,62.0527 146.302,62.6461 145.303,63.8329 C144.305,65.0196 143.805,66.6463 143.805,68.7129 C143.805,70.7897 144.305,72.4215 145.303,73.6083 C146.302,74.795 147.653,75.3884 149.355,75.3884 M175.144,73.4395 C174.179,74.8717 173.019,75.9511 171.662,76.6775 C170.306,77.4038 169.06,77.767 167.926,77.767 C166.337,77.767 164.909,77.1481 163.644,75.9102 C162.378,74.6723 161.746,72.7949 161.746,70.2782 C161.746,68.2934 162.166,66.521 163.005,64.9608 C163.845,63.4006 164.969,62.1678 166.376,61.2624 C167.784,60.357 169.526,59.9043 171.603,59.9043 C172.204,59.9043 173.112,59.9606 174.327,60.0731 C174.508,60.0936 174.781,60.1191 175.144,60.1498 L175.144,52.5229 L178.327,52.5229 L178.327,77.2913 L175.144,77.2913 L175.144,73.4395 M175.144,70.048 L175.144,62.6973 C174.02,62.4313 172.976,62.2983 172.011,62.2983 C170.059,62.2983 168.433,62.9786 167.134,64.3393 C165.834,65.7 165.185,67.5517 165.185,69.8945 C165.185,71.5928 165.539,72.8742 166.249,73.7387 C166.958,74.6032 167.767,75.0354 168.675,75.0354 C169.662,75.0354 170.752,74.5853 171.943,73.685 C173.135,72.7847 174.202,71.5724 175.144,70.048 M199.179,76.1557 C196.648,77.2401 194.253,77.7824 191.995,77.7824 C190.281,77.7824 188.749,77.3987 187.398,76.6314 C186.047,75.8641 184.966,74.7669 184.155,73.3397 C183.343,71.9125 182.938,70.3856 182.938,68.7589 C182.938,67.1936 183.324,65.6897 184.095,64.2472 C184.867,62.8047 185.945,61.6819 187.33,60.8788 C188.715,60.0757 190.258,59.6741 191.961,59.6741 C194.219,59.6741 196.032,60.4005 197.4,61.8532 C198.768,63.306 199.451,65.5465 199.451,68.5748 L199.451,69.1886 L186.343,69.1886 C186.343,70.3754 186.618,71.4598 187.168,72.442 C187.719,73.4241 188.442,74.1607 189.339,74.6518 C190.236,75.1429 191.257,75.3884 192.403,75.3884 C194.446,75.3884 196.705,74.7746 199.179,73.5469 L199.179,76.1557 M186.53,67.0555 L196.012,67.0555 L196.012,66.6412 C196.012,65.2396 195.632,64.1245 194.872,63.2958 C194.111,62.4671 193.096,62.0527 191.824,62.0527 C190.542,62.0527 189.433,62.4748 188.496,63.3188 C187.56,64.1628 186.904,65.4084 186.53,67.0555 M209.39,77.2913 L209.39,54.9169 L203.704,54.9169 L203.704,52.5229 L212.557,52.5229 L212.557,74.9127 L218.498,74.9127 L218.498,77.2913 L209.39,77.2913 M261.734,83 C258.59,82.8261 255.94,82.0255 253.783,80.5984 C251.627,79.1712 249.905,77.2453 248.616,74.8206 C247.328,72.3959 246.684,69.9661 246.684,67.5313 C246.684,65.0964 247.328,62.6666 248.616,60.2419 C249.905,57.8172 251.627,55.8913 253.783,54.4642 C255.94,53.037 258.59,52.2313 261.734,52.0472 L261.734,54.4411 C259.362,54.6355 257.322,55.3542 255.613,56.5972 C253.905,57.8403 252.563,59.4235 251.587,61.3468 C250.611,63.2702 250.123,65.3317 250.123,67.5313 C250.123,69.7309 250.611,71.7923 251.587,73.7157 C252.563,75.6391 253.905,77.2197 255.613,78.4576 C257.322,79.6955 259.362,80.4168 261.734,80.6214 L261.734,83 M268.131,77.2913 L265.357,77.2913 L265.357,53.4743 L268.812,53.4743 L274.907,69.1579 L281.002,53.4743 L284.373,53.4743 L284.373,77.2913 L281.206,77.2913 L281.206,62.1141 L281.291,60.0271 L281.206,60.0271 L280.457,62.1141 L276.371,72.534 L272.932,72.534 L268.795,62.1141 L268.131,60.0271 L268.046,60.0271 L268.131,62.1141 L268.131,77.2913 M303.607,60.1498 L303.607,77.2913 L300.44,77.2913 L300.44,73.5315 C299.419,74.9434 298.284,76.0022 297.036,76.7082 C295.787,77.4141 294.539,77.767 293.29,77.767 C292.178,77.767 291.159,77.4985 290.234,76.9614 C289.309,76.4243 288.665,75.7183 288.302,74.8436 C287.939,73.9689 287.757,72.2629 287.757,69.7257 L287.757,60.1498 L290.924,60.1498 L290.924,70.0787 C290.924,71.7258 291.012,72.8128 291.188,73.3397 C291.364,73.8666 291.687,74.2988 292.158,74.6364 C292.629,74.9741 293.137,75.1429 293.682,75.1429 C294.794,75.1429 295.989,74.6697 297.265,73.7234 C298.542,72.777 299.601,71.5826 300.44,70.1401 L300.44,60.1498 L303.607,60.1498 M324.782,76.6007 C323.295,77.1634 322.217,77.4985 321.547,77.6059 C320.878,77.7133 320.231,77.767 319.607,77.767 C318.279,77.767 317.064,77.5368 315.963,77.0765 C314.862,76.6161 314.031,75.9357 313.469,75.0354 C312.908,74.1351 312.627,72.7438 312.627,70.8613 L312.627,63.9556 L307.877,63.9556 L307.877,61.577 L312.627,61.577 L312.627,54.6713 L315.793,54.6713 L315.793,61.577 L324.254,61.577 L324.254,63.9556 L315.793,63.9556 L315.793,70.8153 C315.793,72.1964 315.975,73.1709 316.338,73.7387 C316.701,74.3065 317.186,74.7234 317.794,74.9894 C318.401,75.2554 319.119,75.3884 319.947,75.3884 C321.479,75.3884 323.091,74.9536 324.782,74.084 L324.782,76.6007 M342.297,73.4395 C341.332,74.8717 340.172,75.9511 338.815,76.6775 C337.459,77.4038 336.213,77.767 335.078,77.767 C333.49,77.767 332.062,77.1481 330.797,75.9102 C329.531,74.6723 328.899,72.7949 328.899,70.2782 C328.899,68.2934 329.319,66.521 330.158,64.9608 C330.998,63.4006 332.122,62.1678 333.529,61.2624 C334.937,60.357 336.679,59.9043 338.756,59.9043 C339.357,59.9043 340.265,59.9606 341.48,60.0731 C341.661,60.0936 341.934,60.1191 342.297,60.1498 L345.48,60.1498 L345.48,72.2578 C345.48,74.3244 345.719,76.0022 346.195,77.2913 L342.893,77.2913 C342.643,76.3501 342.444,75.0661 342.297,73.4395 M342.297,70.048 L342.297,62.6973 C341.173,62.4313 340.129,62.2983 339.164,62.2983 C337.212,62.2983 335.586,62.9786 334.287,64.3393 C332.987,65.7 332.338,67.5517 332.338,69.8945 C332.338,71.5928 332.692,72.8742 333.402,73.7387 C334.111,74.6032 334.92,75.0354 335.828,75.0354 C336.815,75.0354 337.905,74.5853 339.096,73.685 C340.288,72.7847 341.355,71.5724 342.297,70.048 M353.649,64.0017 C354.625,62.5694 355.788,61.4901 357.139,60.7637 C358.489,60.0373 359.732,59.6741 360.867,59.6741 C362.456,59.6741 363.886,60.2931 365.157,61.531 C366.428,62.7689 367.064,64.6462 367.064,67.1629 C367.064,69.1477 366.641,70.9202 365.796,72.4803 C364.95,74.0405 363.824,75.2733 362.416,76.1787 C361.009,77.0841 359.267,77.5368 357.19,77.5368 C356.6,77.5368 355.692,77.4806 354.466,77.368 C354.284,77.3476 354.012,77.322 353.649,77.2913 L350.482,77.2913 L350.482,52.5229 L353.649,52.5229 L353.649,64.0017 M353.649,67.3931 L353.649,74.7439 C354.795,75.0099 355.851,75.1429 356.815,75.1429 C358.733,75.1429 360.348,74.4651 361.659,73.1095 C362.97,71.754 363.625,69.8997 363.625,67.5466 C363.625,65.8381 363.268,64.5541 362.553,63.6948 C361.837,62.8354 361.026,62.4057 360.118,62.4057 C359.131,62.4057 358.044,62.8558 356.858,63.7561 C355.672,64.6564 354.602,65.8688 353.649,67.3931 M376.747,77.2913 L376.747,54.9169 L371.061,54.9169 L371.061,52.5229 L379.914,52.5229 L379.914,74.9127 L385.856,74.9127 L385.856,77.2913 L376.747,77.2913 M408.376,76.1557 C405.845,77.2401 403.45,77.7824 401.191,77.7824 C399.477,77.7824 397.945,77.3987 396.595,76.6314 C395.244,75.8641 394.163,74.7669 393.351,73.3397 C392.54,71.9125 392.134,70.3856 392.134,68.7589 C392.134,67.1936 392.52,65.6897 393.292,64.2472 C394.064,62.8047 395.142,61.6819 396.527,60.8788 C397.911,60.0757 399.455,59.6741 401.157,59.6741 C403.416,59.6741 405.229,60.4005 406.596,61.8532 C407.964,63.306 408.648,65.5465 408.648,68.5748 L408.648,69.1886 L395.539,69.1886 C395.539,70.3754 395.814,71.4598 396.365,72.442 C396.915,73.4241 397.639,74.1607 398.535,74.6518 C399.432,75.1429 400.453,75.3884 401.6,75.3884 C403.643,75.3884 405.901,74.7746 408.376,73.5469 L408.376,76.1557 M395.726,67.0555 L405.209,67.0555 L405.209,66.6412 C405.209,65.2396 404.829,64.1245 404.068,63.2958 C403.308,62.4671 402.292,62.0527 401.021,62.0527 C399.738,62.0527 398.629,62.4748 397.693,63.3188 C396.756,64.1628 396.101,65.4084 395.726,67.0555 M434.433,76.7849 L434.433,73.8691 C437.157,75.0354 439.631,75.6186 441.856,75.6186 C442.786,75.6186 443.677,75.4575 444.529,75.1352 C445.38,74.8129 446.024,74.35 446.461,73.7464 C446.898,73.1428 447.116,72.488 447.116,71.7821 C447.116,70.9534 446.816,70.1784 446.214,69.4572 C445.613,68.7359 444.483,67.9405 442.826,67.0709 L441.09,66.1655 L439.336,65.26 C436.249,63.6129 434.706,61.5668 434.706,59.1217 C434.706,57.3313 435.395,55.8248 436.774,54.6023 C438.153,53.3797 440.307,52.7684 443.235,52.7684 C445.119,52.7684 446.94,53.014 448.7,53.505 L448.7,56.1599 C446.759,55.4847 444.869,55.147 443.031,55.147 C441.566,55.147 440.383,55.4949 439.481,56.1906 C438.579,56.8863 438.128,57.7252 438.128,58.7073 C438.128,59.6792 438.474,60.4874 439.166,61.132 C439.858,61.7765 440.744,62.3699 441.822,62.9121 L443.15,63.6334 L444.801,64.5388 L446.197,65.2754 C449.091,66.8714 450.538,68.8766 450.538,71.291 C450.538,73.1325 449.795,74.7132 448.308,76.0329 C446.821,77.3527 444.438,78.0126 441.158,78.0126 C440.114,78.0126 439.118,77.9333 438.17,77.7747 C437.222,77.6161 435.977,77.2862 434.433,76.7849 M471.22,76.6007 C469.733,77.1634 468.655,77.4985 467.985,77.6059 C467.315,77.7133 466.668,77.767 466.044,77.767 C464.716,77.767 463.502,77.5368 462.401,77.0765 C461.3,76.6161 460.469,75.9357 459.907,75.0354 C459.345,74.1351 459.064,72.7438 459.064,70.8613 L459.064,63.9556 L454.314,63.9556 L454.314,61.577 L459.064,61.577 L459.064,54.6713 L462.231,54.6713 L462.231,61.577 L470.692,61.577 L470.692,63.9556 L462.231,63.9556 L462.231,70.8153 C462.231,72.1964 462.412,73.1709 462.776,73.7387 C463.139,74.3065 463.624,74.7234 464.231,74.9894 C464.838,75.2554 465.556,75.3884 466.385,75.3884 C467.917,75.3884 469.529,74.9536 471.22,74.084 L471.22,76.6007 M488.734,73.4395 C487.77,74.8717 486.609,75.9511 485.253,76.6775 C483.897,77.4038 482.651,77.767 481.516,77.767 C479.927,77.767 478.5,77.1481 477.234,75.9102 C475.969,74.6723 475.336,72.7949 475.336,70.2782 C475.336,68.2934 475.756,66.521 476.596,64.9608 C477.436,63.4006 478.559,62.1678 479.967,61.2624 C481.374,60.357 483.116,59.9043 485.193,59.9043 C485.795,59.9043 486.703,59.9606 487.917,60.0731 C488.099,60.0936 488.371,60.1191 488.734,60.1498 L491.918,60.1498 L491.918,72.2578 C491.918,74.3244 492.156,76.0022 492.633,77.2913 L489.33,77.2913 C489.081,76.3501 488.882,75.0661 488.734,73.4395 M488.734,70.048 L488.734,62.6973 C487.611,62.4313 486.567,62.2983 485.602,62.2983 C483.65,62.2983 482.024,62.9786 480.724,64.3393 C479.425,65.7 478.775,67.5517 478.775,69.8945 C478.775,71.5928 479.13,72.8742 479.839,73.7387 C480.548,74.6032 481.357,75.0354 482.265,75.0354 C483.253,75.0354 484.342,74.5853 485.534,73.685 C486.726,72.7847 487.792,71.5724 488.734,70.048 M513.059,76.6007 C511.572,77.1634 510.494,77.4985 509.824,77.6059 C509.155,77.7133 508.508,77.767 507.883,77.767 C506.556,77.767 505.341,77.5368 504.24,77.0765 C503.139,76.6161 502.308,75.9357 501.746,75.0354 C501.184,74.1351 500.903,72.7438 500.903,70.8613 L500.903,63.9556 L496.154,63.9556 L496.154,61.577 L500.903,61.577 L500.903,54.6713 L504.07,54.6713 L504.07,61.577 L512.531,61.577 L512.531,63.9556 L504.07,63.9556 L504.07,70.8153 C504.07,72.1964 504.252,73.1709 504.615,73.7387 C504.978,74.3065 505.463,74.7234 506.07,74.9894 C506.678,75.2554 507.395,75.3884 508.224,75.3884 C509.756,75.3884 511.368,74.9536 513.059,74.084 L513.059,76.6007 M533.893,76.1557 C531.362,77.2401 528.968,77.7824 526.709,77.7824 C524.995,77.7824 523.463,77.3987 522.113,76.6314 C520.762,75.8641 519.681,74.7669 518.869,73.3397 C518.058,71.9125 517.652,70.3856 517.652,68.7589 C517.652,67.1936 518.038,65.6897 518.81,64.2472 C519.582,62.8047 520.66,61.6819 522.044,60.8788 C523.429,60.0757 524.973,59.6741 526.675,59.6741 C528.934,59.6741 530.747,60.4005 532.114,61.8532 C533.482,63.306 534.166,65.5465 534.166,68.5748 L534.166,69.1886 L521.057,69.1886 C521.057,70.3754 521.332,71.4598 521.883,72.442 C522.433,73.4241 523.157,74.1607 524.053,74.6518 C524.95,75.1429 525.971,75.3884 527.118,75.3884 C529.161,75.3884 531.419,74.7746 533.893,73.5469 L533.893,76.1557 M521.244,67.0555 L530.727,67.0555 L530.727,66.6412 C530.727,65.2396 530.347,64.1245 529.586,63.2958 C528.826,62.4671 527.81,62.0527 526.539,62.0527 C525.256,62.0527 524.147,62.4748 523.211,63.3188 C522.274,64.1628 521.619,65.4084 521.244,67.0555 M539.031,52.0472 C542.175,52.2313 544.825,53.037 546.982,54.4642 C549.138,55.8913 550.861,57.8172 552.149,60.2419 C553.437,62.6666 554.081,65.0964 554.081,67.5313 C554.081,69.9661 553.437,72.3959 552.149,74.8206 C550.861,77.2453 549.138,79.1712 546.982,80.5984 C544.825,82.0255 542.175,82.8261 539.031,83 L539.031,80.6214 C541.404,80.4168 543.444,79.6955 545.152,78.4576 C546.86,77.2197 548.205,75.6391 549.187,73.7157 C550.168,71.7923 550.659,69.7309 550.659,67.5313 C550.659,65.3317 550.168,63.2702 549.187,61.3468 C548.205,59.4235 546.86,57.8403 545.152,56.5972 C543.444,55.3542 541.404,54.6355 539.031,54.4411 L539.031,52.0472 " style="stroke:#323232;stroke-opacity:1;stroke-width:1;stroke-linejoin:miter;stroke-miterlimit:2;stroke-linecap:round;fill-rule:evenodd;fill:#333333;fill-opacity:1;"/>
        </g>
        <g id="Shape80">
            <desc type="0" basicInfo-basicType="0" basicInfo-roundedRectRadius="12" basicInfo-polygonSides="6" basicInfo-starPoints="5" text="" font-familyName="" font-pointSize="20" font-weight="-1" strokeStyle="0" markerStart="0" markerEnd="0" shadowEnabled="0" shadowOffsetX="0" shadowOffsetY="2" shadowBlur="4" shadowOpacity="160" transform="matrix(1,0,0,1,62,190)" locked="0" mesh="" flag=""/>
            <path id="shapePath80" d="M77.5,181 C77.5,181 46.5,199 46.5,199 C46.5,199 77.5,181 77.5,181 Z" style="stroke:#323232;stroke-opacity:1;stroke-width:1;stroke-linejoin:miter;stroke-miterlimit:2;stroke-linecap:round;fill-rule:evenodd;fill:#cc6600;fill-opacity:1;"/>
        </g>
        <g id="Shape81">
            <desc type="2" basicInfo-basicType="0" basicInfo-roundedRectRadius="12" basicInfo-polygonSides="6" basicInfo-starPoints="5" text="Controller" font-familyName="Monaco" font-pointSize="44" font-weight="50" strokeStyle="0" markerStart="0" markerEnd="0" shadowEnabled="0" shadowOffsetX="0" shadowOffsetY="2" shadowBlur="4" shadowOpacity="160" transform="matrix(0.425403,0,0,0.814815,58.9849,201.254)" locked="0" mesh="" flag=""/>
            <path id="shapePath81" d="M13.4136,222.939 C12.3535,223.698 11.403,224.077 10.5621,224.077 C9.45319,224.077 8.43261,223.508 7.50038,222.37 C6.56815,221.233 5.84308,219.54 5.32518,217.294 C4.80727,215.047 4.54832,212.506 4.54832,209.67 C4.54832,206.857 4.80423,204.331 5.31604,202.09 C5.82785,199.849 6.54987,198.151 7.4821,196.996 C8.41433,195.84 9.44101,195.263 10.5621,195.263 C11.403,195.263 12.3535,195.642 13.4136,196.401 L13.4136,199.622 C12.4327,198.536 11.4578,197.994 10.489,197.994 C9.75784,197.994 9.08914,198.472 8.48288,199.429 C7.87663,200.386 7.38766,201.789 7.01599,203.639 C6.64431,205.489 6.45848,207.499 6.45848,209.67 C6.45848,211.876 6.65041,213.912 7.03427,215.779 C7.41813,217.647 7.90861,219.044 8.50573,219.972 C9.10285,220.9 9.76394,221.364 10.489,221.364 C11.4517,221.364 12.4266,220.821 13.4136,219.736 L13.4136,222.939 M20.3173,223.797 C18.855,223.797 17.6851,222.82 16.8077,220.865 C15.9303,218.91 15.4916,216.445 15.4916,213.469 C15.4916,210.493 15.9303,208.03 16.8077,206.081 C17.6851,204.132 18.855,203.158 20.3173,203.158 C21.7735,203.158 22.9403,204.132 23.8177,206.081 C24.6951,208.03 25.1338,210.493 25.1338,213.469 C25.1338,216.445 24.6951,218.91 23.8177,220.865 C22.9403,222.82 21.7735,223.797 20.3173,223.797 M20.3173,221.084 C21.2252,221.084 21.9472,220.407 22.4834,219.053 C23.0196,217.699 23.2876,215.838 23.2876,213.469 C23.2876,211.111 23.0196,209.256 22.4834,207.902 C21.9472,206.548 21.2252,205.871 20.3173,205.871 C19.4034,205.871 18.6783,206.548 18.1421,207.902 C17.6059,209.256 17.3378,211.111 17.3378,213.469 C17.3378,215.838 17.6059,217.699 18.1421,219.053 C18.6783,220.407 19.4034,221.084 20.3173,221.084 M27.3398,223.254 L27.3398,203.7 L29.0397,203.7 L29.0397,207.972 C29.5272,206.466 30.1151,205.288 30.8037,204.436 C31.4922,203.584 32.1807,203.158 32.8692,203.158 C33.4724,203.158 34.0208,203.464 34.5143,204.077 C35.0078,204.69 35.3536,205.492 35.5516,206.484 C35.7497,207.476 35.8487,209.425 35.8487,212.331 L35.8487,223.254 L34.1487,223.254 L34.1487,211.928 C34.1487,210.049 34.1015,208.809 34.0071,208.208 C33.9126,207.607 33.739,207.114 33.4861,206.729 C33.2332,206.344 32.9575,206.151 32.659,206.151 C32.0619,206.151 31.4206,206.694 30.7351,207.779 C30.0496,208.865 29.4845,210.224 29.0397,211.858 L29.0397,223.254 L27.3398,223.254 M47.1027,222.467 C46.3046,223.109 45.7257,223.491 45.3662,223.613 C45.0067,223.736 44.6594,223.797 44.3243,223.797 C43.6114,223.797 42.9595,223.535 42.3685,223.009 C41.7774,222.484 41.3311,221.708 41.0295,220.681 C40.7279,219.654 40.5771,218.067 40.5771,215.92 L40.5771,208.042 L38.0272,208.042 L38.0272,205.329 L40.5771,205.329 L40.5771,197.451 L42.2771,197.451 L42.2771,205.329 L46.8194,205.329 L46.8194,208.042 L42.2771,208.042 L42.2771,215.867 C42.2771,217.443 42.3746,218.554 42.5695,219.202 C42.7645,219.85 43.025,220.325 43.351,220.629 C43.6769,220.932 44.0623,221.084 44.5071,221.084 C45.3297,221.084 46.1949,220.588 47.1027,219.596 L47.1027,222.467 M50.6613,223.254 L50.6613,203.7 L52.3613,203.7 L52.3613,207.972 C52.8914,206.361 53.4992,205.156 54.1846,204.357 C54.8701,203.558 55.6332,203.158 56.4741,203.158 C57.0895,203.158 57.7049,203.339 58.3202,203.7 L58.3202,210.755 L56.6843,210.755 L56.6843,206.291 C56.3979,206.198 56.1725,206.151 56.0079,206.151 C55.3743,206.151 54.7528,206.63 54.1435,207.587 C53.5342,208.544 52.9401,209.979 52.3613,211.893 L52.3613,223.254 L50.6613,223.254 M65.2239,223.797 C63.7616,223.797 62.5917,222.82 61.7143,220.865 C60.8369,218.91 60.3982,216.445 60.3982,213.469 C60.3982,210.493 60.8369,208.03 61.7143,206.081 C62.5917,204.132 63.7616,203.158 65.2239,203.158 C66.6801,203.158 67.8469,204.132 68.7243,206.081 C69.6017,208.03 70.0404,210.493 70.0404,213.469 C70.0404,216.445 69.6017,218.91 68.7243,220.865 C67.8469,222.82 66.6801,223.797 65.2239,223.797 M65.2239,221.084 C66.1318,221.084 66.8538,220.407 67.39,219.053 C67.9262,217.699 68.1942,215.838 68.1942,213.469 C68.1942,211.111 67.9262,209.256 67.39,207.902 C66.8538,206.548 66.1318,205.871 65.2239,205.871 C64.31,205.871 63.5849,206.548 63.0487,207.902 C62.5125,209.256 62.2444,211.111 62.2444,213.469 C62.2444,215.838 62.5125,217.699 63.0487,219.053 C63.5849,220.407 64.31,221.084 65.2239,221.084 M74.9882,223.254 L74.9882,197.731 L71.9356,197.731 L71.9356,195 L76.6882,195 L76.6882,220.541 L79.8779,220.541 L79.8779,223.254 L74.9882,223.254 M86.2149,223.254 L86.2149,197.731 L83.1623,197.731 L83.1623,195 L87.9148,195 L87.9148,220.541 L91.1045,220.541 L91.1045,223.254 L86.2149,223.254 M103.19,221.959 C101.832,223.196 100.546,223.815 99.3334,223.815 C98.4134,223.815 97.5908,223.377 96.8657,222.502 C96.1407,221.626 95.5603,220.375 95.1247,218.747 C94.689,217.119 94.4712,215.377 94.4712,213.521 C94.4712,211.736 94.6783,210.02 95.0927,208.375 C95.507,206.729 96.0858,205.448 96.8292,204.532 C97.5725,203.616 98.4012,203.158 99.3151,203.158 C100.528,203.158 101.501,203.986 102.235,205.644 C102.969,207.301 103.337,209.857 103.337,213.311 L103.337,214.011 L96.2991,214.011 C96.2991,215.365 96.4469,216.602 96.7424,217.723 C97.0379,218.843 97.4263,219.683 97.9077,220.243 C98.389,220.804 98.9374,221.084 99.5528,221.084 C100.65,221.084 101.862,220.383 103.19,218.983 L103.19,221.959 M96.3996,211.578 L101.49,211.578 L101.49,211.105 C101.49,209.507 101.286,208.234 100.878,207.289 C100.47,206.344 99.9244,205.871 99.242,205.871 C98.5535,205.871 97.9579,206.353 97.4552,207.315 C96.9526,208.278 96.6007,209.699 96.3996,211.578 M106.795,223.254 L106.795,203.7 L108.495,203.7 L108.495,207.972 C109.025,206.361 109.632,205.156 110.318,204.357 C111.003,203.558 111.766,203.158 112.607,203.158 C113.223,203.158 113.838,203.339 114.453,203.7 L114.453,210.755 L112.818,210.755 L112.818,206.291 C112.531,206.198 112.306,206.151 112.141,206.151 C111.508,206.151 110.886,206.63 110.277,207.587 C109.667,208.544 109.073,209.979 108.495,211.893 L108.495,223.254 L106.795,223.254 " style="stroke:#323232;stroke-opacity:1;stroke-width:1;stroke-linejoin:miter;stroke-miterlimit:2;stroke-linecap:round;fill-rule:evenodd;fill:#333333;fill-opacity:1;"/>
        </g>
        <g id="Shape82">
            <desc type="0" basicInfo-basicType="0" basicInfo-roundedRectRadius="12" basicInfo-polygonSides="6" basicInfo-starPoints="5" text="" font-familyName="Monaco" font-pointSize="44" font-weight="50" strokeStyle="0" markerStart="0" markerEnd="0" shadowEnabled="0" shadowOffsetX="0" shadowOffsetY="2" shadowBlur="4" shadowOpacity="160" transform="matrix(1,0,0,1,580,168.5)" locked="0" mesh="" flag=""/>
            <path id="shapePath82" d="M567.5,154 C567.5,154 592.5,183 592.5,183 C592.5,183 567.5,154 567.5,154 Z" style="stroke:#323232;stroke-opacity:1;stroke-width:1;stroke-linejoin:miter;stroke-miterlimit:2;stroke-linecap:round;fill-rule:evenodd;fill:#333333;fill-opacity:1;"/>
        </g>
        <g id="Shape83">
            <desc type="2" basicInfo-basicType="0" basicInfo-roundedRectRadius="12" basicInfo-polygonSides="6" basicInfo-starPoints="5" text="View" font-familyName="Monaco" font-pointSize="45" font-weight="50" strokeStyle="0" markerStart="0" markerEnd="0" shadowEnabled="0" shadowOffsetX="0" shadowOffsetY="2" shadowBlur="4" shadowOpacity="160" transform="matrix(0.652778,0,0,0.555248,602.277,194.8)" locked="0" mesh="" flag=""/>
            <path id="shapePath83" d="M581.413,191.135 L584.196,191.135 L577.339,210.069 L574.399,210.069 L567.5,191.135 L570.555,191.135 L575.389,204.36 L576.02,206.287 L576.579,204.372 L581.413,191.135 M591.364,210.069 L591.364,198.333 L586.918,198.333 L586.918,196.442 L594.032,196.442 L594.032,208.178 L598.493,208.178 L598.493,210.069 L591.364,210.069 M590.92,191.525 C590.92,191.013 591.125,190.63 591.536,190.378 C591.948,190.126 592.335,190 592.698,190 C593.071,190 593.463,190.126 593.874,190.378 C594.286,190.63 594.491,191.013 594.491,191.525 C594.491,192.029 594.286,192.408 593.874,192.66 C593.463,192.912 593.071,193.038 592.698,193.038 C592.335,193.038 591.948,192.912 591.536,192.66 C591.125,192.408 590.92,192.029 590.92,191.525 M617.825,209.167 C615.692,210.029 613.675,210.46 611.772,210.46 C610.328,210.46 609.037,210.155 607.899,209.545 C606.761,208.935 605.851,208.063 605.167,206.928 C604.483,205.793 604.141,204.579 604.141,203.286 C604.141,202.042 604.466,200.846 605.117,199.699 C605.767,198.552 606.675,197.66 607.842,197.021 C609.008,196.383 610.309,196.064 611.743,196.064 C613.646,196.064 615.174,196.641 616.326,197.796 C617.478,198.951 618.054,200.732 618.054,203.14 L618.054,203.628 L607.01,203.628 C607.01,204.571 607.242,205.433 607.706,206.214 C608.169,206.995 608.779,207.581 609.534,207.971 C610.29,208.361 611.15,208.557 612.116,208.557 C613.837,208.557 615.74,208.069 617.825,207.093 L617.825,209.167 M607.168,201.932 L615.157,201.932 L615.157,201.602 C615.157,200.488 614.837,199.602 614.196,198.943 C613.555,198.284 612.699,197.955 611.628,197.955 C610.548,197.955 609.613,198.29 608.824,198.961 C608.036,199.632 607.483,200.622 607.168,201.932 M622.799,210.069 L620.189,196.442 L622.67,196.442 L624.19,204.738 L624.592,206.666 L624.979,204.738 L627.532,196.442 L629.928,196.442 L632.811,204.738 L633.313,206.666 L633.643,204.738 L635.177,196.442 L637.228,196.442 L634.632,210.069 L632.136,210.069 L629.067,201.297 L628.579,199.37 L628.508,199.37 L628.063,201.285 L625.395,210.069 L622.799,210.069 " style="stroke:#323232;stroke-opacity:1;stroke-width:1;stroke-linejoin:miter;stroke-miterlimit:2;stroke-linecap:round;fill-rule:evenodd;fill:#333333;fill-opacity:1;"/>
        </g>
    </g>
</svg>
